<svg width="24" height="25" viewBox="0 0 24 25" fill="none" xmlns="http://www.w3.org/2000/svg">
<path d="M2 12.7275C2 8.9563 2 7.07068 3.17157 5.89911C4.34315 4.72754 6.22876 4.72754 10 4.72754H14C17.7712 4.72754 19.6569 4.72754 20.8284 5.89911C22 7.07068 22 8.9563 22 12.7275C22 16.4988 22 18.3844 20.8284 19.556C19.6569 20.7275 17.7712 20.7275 14 20.7275H10C6.22876 20.7275 4.34315 20.7275 3.17157 19.556C2 18.3844 2 16.4988 2 12.7275Z" stroke="#1C5445" stroke-width="1.5"/>
<path d="M6 8.72754L8.1589 10.5266C9.99553 12.0571 10.9139 12.8224 12 12.8224C13.0861 12.8224 14.0045 12.0571 15.8411 10.5266L18 8.72754" stroke="#1C5445" stroke-width="1.5" stroke-linecap="round"/>
</svg>
