<svg width="24" height="25" viewBox="0 0 24 25" fill="none" xmlns="http://www.w3.org/2000/svg">
<path d="M10.0376 6.04371L10.6866 7.20664C11.2723 8.25612 11.0372 9.63286 10.1147 10.5553C10.1147 10.5553 10.1147 10.5553 10.1147 10.5553C10.1146 10.5555 8.99588 11.6744 11.0245 13.703C13.0525 15.731 14.1714 14.6136 14.1722 14.6128C14.1722 14.6128 14.1722 14.6128 14.1722 14.6128C15.0947 13.6903 16.4714 13.4552 17.5209 14.0409L18.6838 14.6899C20.2686 15.5744 20.4557 17.7968 19.0628 19.1897C18.2258 20.0267 17.2004 20.678 16.0669 20.721C14.1588 20.7933 10.9183 20.3104 7.6677 17.0598C4.41713 13.8093 3.93421 10.5688 4.00655 8.66063C4.04952 7.52714 4.7008 6.50177 5.53781 5.66477C6.93076 4.27182 9.15317 4.45898 10.0376 6.04371Z" stroke="#1C5445" stroke-width="1.5" stroke-linecap="round"/>
</svg>
