<svg width="24" height="35" viewBox="0 0 24 35" fill="none" xmlns="http://www.w3.org/2000/svg">
<path d="M5 14.2422C5 10.6442 8.13401 7.72754 12 7.72754C15.866 7.72754 19 10.6442 19 14.2422C19 17.8119 16.7658 21.9775 13.2801 23.4671C12.4675 23.8144 11.5325 23.8144 10.7199 23.4671C7.23416 21.9775 5 17.8119 5 14.2422Z" stroke="#1C5445" stroke-width="1.5"/>
<path d="M14 14.7275C14 15.8321 13.1046 16.7275 12 16.7275C10.8954 16.7275 10 15.8321 10 14.7275C10 13.623 10.8954 12.7275 12 12.7275C13.1046 12.7275 14 13.623 14 14.7275Z" stroke="#1C5445" stroke-width="1.5"/>
<path d="M20.9605 21.2275C21.6259 21.83 22 22.5091 22 23.2275C22 25.7128 17.5228 27.7275 12 27.7275C6.47715 27.7275 2 25.7128 2 23.2275C2 22.5091 2.37412 21.83 3.03947 21.2275" stroke="#1C5445" stroke-width="1.5" stroke-linecap="round"/>
</svg>
