<svg width="25" height="25" viewBox="0 0 25 25" fill="none" xmlns="http://www.w3.org/2000/svg">
<path d="M4.22411 15.7957C3.37418 14.6915 2.94922 14.1394 2.94922 12.5C2.94922 10.8606 3.37418 10.3085 4.22411 9.20433C5.92118 6.99956 8.76733 4.5 12.9492 4.5C17.1311 4.5 19.9773 6.99956 21.6743 9.20433C22.5243 10.3085 22.9492 10.8606 22.9492 12.5C22.9492 14.1394 22.5243 14.6915 21.6743 15.7957C19.9773 18.0004 17.1311 20.5 12.9492 20.5C8.76733 20.5 5.92118 18.0004 4.22411 15.7957Z" stroke="#1C5445" stroke-width="1.5"/>
<path d="M15.9492 12.5C15.9492 14.1569 14.6061 15.5 12.9492 15.5C11.2924 15.5 9.94922 14.1569 9.94922 12.5C9.94922 10.8431 11.2924 9.5 12.9492 9.5C14.6061 9.5 15.9492 10.8431 15.9492 12.5Z" stroke="#1C5445" stroke-width="1.5"/>
</svg>
