<svg width="200" height="75" viewBox="0 0 200 75" fill="none" xmlns="http://www.w3.org/2000/svg">
<path d="M35.8516 5.13787C35.8673 4.5139 35.6379 4.08443 35.1634 3.84946C34.9199 3.7285 34.6713 3.68716 34.4173 3.72545C34.152 3.76461 33.9121 3.88035 33.6976 4.07268C33.4279 4.31461 33.2116 4.59135 33.0487 4.9029C32.941 5.10654 32.811 5.4281 32.6587 5.86758C32.4686 6.41149 32.3592 6.94887 32.3303 7.47972C32.1902 10.0504 32.3627 12.6638 32.8478 15.3198C32.853 15.3503 32.8692 15.3794 32.8964 15.4073C32.9305 15.4438 32.9524 15.4791 32.9621 15.513C33.0698 15.8759 33.3009 16.0565 33.6555 16.0548C33.8692 16.053 34.0504 16.0195 34.1993 15.9542C34.3946 15.8681 34.5158 15.7084 34.5631 15.4752C34.6726 14.9382 34.8862 13.2843 35.2041 10.5134C35.3661 9.10797 35.5526 7.70599 35.7636 6.30749C35.81 6.00203 35.8393 5.61216 35.8516 5.13787Z" stroke="#F5ED86" stroke-width="0.260659"/>
<path d="M44.7722 6.759C44.7573 6.6363 44.7157 6.70592 44.6474 6.96786C44.6378 7.00354 44.6203 7.03444 44.5949 7.06054C44.5817 7.07447 44.5695 7.07273 44.5581 7.05532C44.5485 7.04053 44.5406 7.04053 44.5345 7.05532C44.3007 7.62969 44.0262 8.18361 43.7109 8.71707" stroke="#F1EAB5" stroke-width="0.260659"/>
<path d="M43.7146 8.72131C43.3363 9.26086 43.11 9.85916 43.0355 10.5162C43.0233 10.6259 43.0049 10.6206 42.9804 10.5005C42.9751 10.4744 42.9721 10.4744 42.9712 10.5005C42.9108 11.9243 42.8937 13.3484 42.92 14.773C42.92 14.7791 42.9103 14.9158 42.8911 15.1829C42.8744 15.4301 42.9445 15.6424 43.1012 15.82C43.2212 15.9548 43.3591 15.977 43.5149 15.8865C43.8188 15.709 44.0793 15.4919 44.2964 15.2351C44.5731 14.9088 44.8573 14.589 45.1488 14.2757C45.4816 13.9189 45.746 13.5865 45.9421 13.2784C46.6496 12.1653 47.2516 10.9988 47.7481 9.77866C47.9469 9.28958 48.1106 8.74741 48.2393 8.15216C48.3952 7.43072 48.5003 6.87245 48.5545 6.47736C48.6474 5.80552 48.6557 5.23725 48.5795 4.77254C48.5165 4.38527 48.3124 4.09809 47.9674 3.91099C47.7634 3.80046 47.5936 3.73606 47.4578 3.71779C47.2862 3.69603 47.0993 3.72954 46.897 3.8183C46.2955 4.08199 45.8309 4.44967 45.5035 4.92135C45.3747 5.10671 45.2412 5.40825 45.1029 5.82598C44.9995 6.14014 44.8905 6.45256 44.7758 6.76324" stroke="#F6ED7D" stroke-width="0.260659"/>
<path d="M43.7109 8.72092C43.7118 8.82535 43.7376 8.83884 43.7884 8.76138C44.2 8.13567 44.5279 7.46949 44.7722 6.76285" stroke="#F8E843" stroke-width="0.260659"/>
<path d="M20.5913 9.1756C20.544 9.53849 20.5698 9.89704 20.6688 10.2512C21.1075 11.8203 21.9323 13.1292 23.1433 14.1778C23.5259 14.5085 23.7895 14.7291 23.934 14.8396C24.2089 15.052 24.5066 15.2308 24.8271 15.3762" stroke="#D1D498" stroke-width="0.260659"/>
<path d="M24.8255 15.378C25.153 15.5086 25.4817 15.5234 25.8119 15.4224C25.8312 15.4167 25.8491 15.4067 25.8643 15.3932C25.8795 15.3797 25.8916 15.3629 25.8999 15.3441C26.1573 14.775 26.3066 14.1771 26.3477 13.5505C26.4055 12.6724 26.1402 11.9123 25.5518 11.27C24.5895 10.2214 23.4845 9.35197 22.2367 8.66186C21.7262 8.38077 21.2582 8.34857 20.8327 8.56526C20.6418 8.66273 20.5608 8.8668 20.5897 9.17748" stroke="#F6ED81" stroke-width="0.260659"/>
<path d="M24.8217 15.3751C24.813 15.2706 24.785 15.1736 24.7377 15.084C24.6991 15.0109 24.6278 14.9443 24.5236 14.8842C22.669 13.8025 21.4305 12.1847 20.8079 10.0308C20.7676 9.89072 20.7554 9.748 20.7711 9.60266C20.7799 9.52695 20.74 9.46821 20.6516 9.42644C20.6345 9.41808 20.62 9.40555 20.6096 9.39016C20.5992 9.37477 20.5933 9.35709 20.5925 9.33898L20.5859 9.1745" stroke="#D8D229" stroke-width="0.260659"/>
<path d="M56.4596 12.4144C56.3598 12.4318 56.2644 12.4597 56.1733 12.498C55.1182 12.9427 54.1546 13.5358 53.2825 14.2772C53.2562 14.2998 53.2072 14.3325 53.1354 14.3751C52.8306 14.5553 52.5728 14.7854 52.3617 15.0657C52.3364 15.0979 52.3026 15.1231 52.2606 15.1414C52.1582 15.1849 52.0715 15.2462 52.0006 15.3254C51.8535 15.4899 51.7711 15.58 51.7536 15.5957C51.0085 16.2536 50.6727 17.1386 50.7462 18.2508C50.7673 18.5641 50.857 18.7921 51.0155 18.9348C51.0451 18.9617 51.0867 18.9771 51.1324 18.9779C51.9721 18.9918 52.7273 18.8447 53.398 18.5367C53.7597 18.3696 54.1984 18.1342 54.7141 17.8305C55.5205 17.3544 55.9478 17.1003 55.996 17.0681C57.3891 16.1456 58.2004 14.7885 58.4298 12.9966C58.4753 12.6416 58.3768 12.3788 58.1342 12.2082" stroke="#F5ED84" stroke-width="0.260659"/>
<path d="M58.1399 12.2075C58.0489 12.0866 57.9639 12.0204 57.8851 12.0091C57.2573 11.9186 56.6658 12.0222 56.1107 12.3198C56.0056 12.3764 56.0131 12.4055 56.133 12.4072L56.4653 12.4138" stroke="#F1EAB5" stroke-width="0.260659"/>
<path d="M58.1356 12.2066C57.5559 12.0987 56.9977 12.1674 56.4609 12.4129" stroke="#F7E84A" stroke-width="0.260659"/>
<path d="M17.16 15.2917C16.7038 15.283 16.3697 15.353 16.1578 15.5018C15.9022 15.6802 15.8076 15.9309 15.8741 16.2537C15.9214 16.4835 15.9963 16.7032 16.0987 16.913C16.5523 17.8406 17.1057 18.7048 17.7589 19.5054C18.1958 20.0406 18.5977 20.3922 18.9646 20.5602C19.3919 20.7551 19.9913 20.8552 20.7627 20.8604C21.1812 20.863 21.4439 20.6894 21.5507 20.3396C21.8134 19.478 21.8069 18.5899 21.531 17.6753C21.4741 17.4856 21.3923 17.3207 21.2854 17.1806C21.1725 17.0326 21.0464 16.8956 20.9072 16.7694C19.8468 15.8138 18.5977 15.3213 17.16 15.2917Z" stroke="#F6ED81" stroke-width="0.260659"/>
<path d="M46.2238 44.1606C46.237 44.6331 46.036 44.9086 45.621 44.9869C45.4485 45.02 45.3219 45.0335 45.2414 45.0274C45.0741 45.0152 44.9734 44.9112 44.9393 44.7154C44.9016 44.4995 44.892 44.282 44.9104 44.0627C44.934 43.7903 44.8995 43.5275 44.8066 43.2742" stroke="#F1EAB5" stroke-width="0.260659"/>
<path d="M44.7976 43.2755C44.6689 42.3869 44.4272 41.5336 44.0726 40.7156C43.9868 40.5172 43.8966 40.3753 43.802 40.2901C43.6593 40.1621 43.4951 40.0964 43.3095 40.0929C43.1344 40.0886 43.0284 40.1713 42.9917 40.341C42.7044 41.6725 42.3892 42.9961 42.046 44.3119C41.9637 44.6261 41.9089 44.8062 41.8818 44.8524C41.7802 45.0229 41.606 45.13 41.3591 45.1735C41.1901 45.2039 41.0544 45.1509 40.9519 45.0142C40.6752 44.6426 40.6218 44.2171 40.7917 43.7376C40.9405 43.3164 41.0784 42.5888 41.2054 41.555C41.2063 41.5489 41.2505 41.2874 41.3381 40.7704C41.402 40.3927 41.409 40.0111 41.3591 39.6256C41.3564 39.606 41.3481 39.5876 41.3352 39.573C41.3223 39.5583 41.3055 39.548 41.2868 39.5434C40.9278 39.4564 40.645 39.519 40.4384 39.7314C39.92 40.2666 39.4923 40.9784 39.1551 41.867C39.1464 41.8896 39.1394 41.8891 39.1341 41.8656C39.1079 41.7586 39.0886 41.7599 39.0763 41.8696C39.0658 41.9557 38.9279 42.1794 38.6626 42.5405C38.4384 42.846 38.1569 42.9656 37.8181 42.8995C37.6202 42.8612 37.4954 42.7637 37.4437 42.6071C37.3912 42.4496 37.41 42.269 37.5002 42.0654C38.0703 40.7687 38.5304 39.8201 38.8806 39.2196C39.3149 38.4738 39.6639 37.691 39.9274 36.8713C40.0167 36.5919 40.0653 36.4261 40.0732 36.3739C40.103 36.1694 40.0553 35.994 39.9301 35.8478C39.6639 35.5389 39.286 35.4192 38.7966 35.4889C38.4884 35.5333 37.9069 35.7147 37.0523 36.0332C36.8492 36.1089 36.6662 36.125 36.5033 36.0815C36.1338 35.9814 35.8366 35.7673 35.6115 35.4393C35.5187 35.3035 35.5104 35.1634 35.5866 35.0189C35.7065 34.7901 35.8965 34.6347 36.1566 34.5529C36.6863 34.3867 37.2156 34.2183 37.7445 34.0477C38.1026 33.932 38.4244 33.7592 38.7099 33.5295C38.8911 33.385 39.107 33.1949 39.3574 32.959C39.5404 32.7867 39.7365 32.5748 39.9458 32.3233C40.1209 32.1136 40.3622 31.8808 40.6695 31.6249C41.0504 31.3073 41.2886 31.0749 41.384 30.9279C41.5749 30.6355 41.6699 30.313 41.669 29.9606C41.669 29.6978 41.5876 29.3854 41.4247 29.0233C41.0832 28.2627 40.6288 27.5461 40.0614 26.8734C38.5448 25.0772 37.0935 23.4141 35.7074 21.8842C35.2407 21.3699 34.6667 20.7128 33.9855 19.9131C33.4102 19.2386 32.8209 18.5768 32.2176 17.9276C31.9593 17.6491 31.6721 17.4115 31.356 17.2149C31.0277 17.0104 30.6814 16.8946 30.3171 16.8676C29.4047 16.8006 28.7349 17.157 28.3076 17.9367C28.1254 18.2692 28.0493 18.6068 28.079 18.9497C28.1071 19.2839 28.2047 19.6298 28.3719 19.9875C28.6267 20.5349 28.8728 20.943 29.1101 21.2119C30.0023 22.2188 30.8293 23.2744 31.5911 24.3788C31.6883 24.5206 32.0022 25.0176 32.5329 25.8695C32.8437 26.3699 33.1747 26.8573 33.5258 27.3316C33.7132 27.5839 33.8174 27.862 33.8384 28.1657C33.8559 28.4207 33.8629 28.5712 33.8594 28.6174C33.8428 28.8515 33.6725 28.935 33.3485 28.868C33.0727 28.8105 32.8087 28.7183 32.5565 28.5912C31.8893 28.2571 31.2308 27.9072 30.5811 27.5417C30.1915 27.3233 29.7182 27.0322 29.1613 26.6684C28.6946 26.3647 28.2257 26.0645 27.7546 25.7677C27.7459 25.7625 27.4486 25.571 26.8628 25.1933C26.1071 24.706 25.3195 24.2739 24.5 23.8971C23.9825 23.6587 23.437 23.5468 22.8634 23.5616C22.1332 23.5816 21.5745 23.8893 21.1875 24.4845C20.5965 25.3931 20.6831 26.2207 21.4476 26.9674C22.0342 27.54 22.4212 27.8842 22.6086 27.9999C25.3169 29.6586 28.0147 31.3343 30.7019 33.0269C30.8806 33.1392 31.0237 33.2497 31.1314 33.3585C31.3118 33.5404 31.4151 33.6905 31.4414 33.8088C31.5316 34.21 31.3757 34.3976 30.9738 34.3715C29.2392 34.2566 27.6438 34.0451 26.1877 33.7371C25.841 33.664 25.1396 33.4825 24.0836 33.1927C23.2395 32.9612 22.5346 32.7911 21.969 32.6823C21.2807 32.5509 20.5632 32.5583 19.8163 32.7045C19.459 32.7741 19.1994 32.8685 19.0374 32.9878C18.808 33.1566 18.6469 33.3977 18.5541 33.7109C18.4184 34.1687 18.4074 34.6008 18.5212 35.0072C18.6237 35.3744 18.85 35.7095 19.2003 36.0123C19.5208 36.2899 19.8798 36.5018 20.2773 36.648C21.3499 37.0423 22.497 37.3368 23.7185 37.5318C25.5686 37.8268 27.4022 38.2019 29.2191 38.657C29.6473 38.7641 29.9542 38.8702 30.1398 38.9755C30.4655 39.16 30.6971 39.4011 30.8346 39.6987C30.9773 40.0103 30.8841 40.2605 30.5548 40.4493C29.9612 40.7913 29.4564 41.0111 29.0405 41.1085C27.6377 41.4366 26.2188 41.6564 24.7836 41.7677C24.7775 41.7686 24.778 41.769 24.785 41.769C24.8025 41.769 24.8156 41.7704 24.8244 41.773C24.8839 41.793 24.8699 41.8069 24.7823 41.8147L22.3013 42.0406C22.2976 42.041 22.2941 42.0428 22.2911 42.0456C22.288 42.0485 22.2855 42.0524 22.2837 42.0571C22.2818 42.0619 22.2807 42.0674 22.2803 42.0733C22.28 42.0792 22.2804 42.0854 22.2816 42.0915C22.286 42.1158 22.2448 42.1228 22.1581 42.1124C22.1222 42.108 22.0889 42.1102 22.0583 42.1189C21.2352 42.3382 20.8683 42.8886 20.9576 43.7702C21.0041 44.2271 21.1603 44.6161 21.4265 44.9372C21.9545 45.5734 22.6524 45.9006 23.5201 45.9188C24.3038 45.9354 25.0814 45.8745 25.8528 45.7361C26.7687 45.5716 27.6876 45.4276 28.6097 45.304C29.5439 45.1787 30.5653 45.2709 31.6739 45.5808C33.2316 46.0159 34.7039 46.6464 36.0909 47.4722C37.0874 48.0658 38.2519 48.5479 39.5846 48.9186C39.8386 48.9891 40.0566 49.0331 40.2387 49.0505C40.5697 49.0827 40.7404 49.0996 40.7509 49.1014C42.6379 49.4147 44.4811 49.3133 46.2805 48.7972C47.1596 48.5448 47.9568 48.1933 48.6722 47.7425C49.6144 47.1481 50.4107 46.4306 51.0613 45.5899C51.9877 44.3924 52.7092 43.0222 53.2259 41.4793C53.3948 40.9762 53.5222 40.4676 53.6081 39.9533C53.6947 39.4346 53.7552 38.912 53.7893 38.3855C53.8707 37.094 53.6663 35.8518 53.1759 34.6586C52.9632 34.1408 52.743 33.627 52.5153 33.117C51.8148 31.5453 51.3026 29.9158 50.9786 28.2284C50.828 27.4416 50.8056 26.6049 50.9116 25.7181C50.9142 25.6972 50.993 25.1781 51.148 24.1608C51.2268 23.6421 51.3144 23.1248 51.4107 22.6087C51.514 22.0578 51.5333 21.6523 51.4685 21.3921C51.3214 20.8073 50.9125 20.4735 50.2418 20.3909C50.0964 20.3726 49.9309 20.3974 49.7453 20.4653C49.5842 20.5244 49.42 20.5758 49.2527 20.6193C48.9078 20.7107 48.6639 20.789 48.5212 20.8543C47.4792 21.3251 46.6526 22.0522 46.0414 23.0356C45.7621 23.4855 45.5213 23.955 45.319 24.4441C45.0966 24.9793 44.9649 25.5293 44.9237 26.0941C44.8895 26.5692 44.9084 27.1275 44.9802 27.7689C45.0931 28.7696 45.3882 29.7234 45.8654 30.6302C46.3391 31.5292 46.8115 32.4286 47.2826 33.3285C47.7423 34.2074 47.9323 35.1425 47.8526 36.1337C47.8027 36.7438 47.7585 37.1245 47.72 37.2759C47.5597 37.8999 47.6171 38.5173 47.892 39.1283C48.2029 39.8166 48.438 40.3301 48.5973 40.6686C48.6017 40.6764 48.6766 40.8083 48.8219 41.0641C49.0023 41.38 49.0623 41.7251 49.0019 42.0993C48.9493 42.4187 48.8022 42.5888 48.5606 42.6097C48.4952 42.6156 48.4297 42.6017 48.3725 42.5701C48.3153 42.5384 48.2692 42.4903 48.2401 42.4322C47.7734 41.4923 47.2064 40.6638 46.5392 39.9467C46.4096 39.8066 46.2708 39.724 46.1229 39.6987C45.9609 39.67 45.7897 39.6696 45.6093 39.6974C45.4377 39.7235 45.3619 39.8223 45.3821 39.9937C45.4819 40.8562 45.6413 41.6877 45.8602 42.4883C46.0117 43.0392 46.1299 43.597 46.2148 44.1618" stroke="#F7DE7B" stroke-width="0.260659"/>
<path d="M44.7941 43.2767C44.7293 43.369 44.7074 43.4904 44.7284 43.6409C44.7705 43.9403 44.7814 44.3102 44.7613 44.7505C44.7543 44.8993 44.8488 45.0468 45.045 45.193C45.0611 45.2053 45.0798 45.2139 45.0997 45.2182C45.1197 45.2225 45.1405 45.2223 45.1605 45.2178C45.3654 45.17 45.5686 45.1156 45.77 45.0547C45.9889 44.9885 46.132 44.8876 46.1995 44.7518C46.2835 44.5812 46.2875 44.385 46.2113 44.1631" stroke="#F9D941" stroke-width="0.260659"/>
<path d="M6.28601 21.4853C6.22034 21.5497 6.18751 21.6024 6.18751 21.6433C6.18663 22.0436 6.28339 22.4017 6.47777 22.7176C6.56533 22.8595 6.78949 23.1414 7.15025 23.5635C7.50487 23.9786 7.93086 24.3585 8.42821 24.7031C9.79329 25.6482 11.1684 26.4188 12.5537 27.0149C12.8435 27.1394 13.2581 27.266 13.7975 27.3948C14.2887 27.5123 14.6762 27.4009 14.9599 27.0606" stroke="#D6D7AB" stroke-width="0.260659"/>
<path d="M14.9864 27.0599C15.2184 26.663 15.3397 26.2523 15.3502 25.8276C15.3589 25.4812 15.3738 25.1731 15.3948 24.9034C15.4255 24.5126 15.4075 24.2128 15.341 24.004C15.1335 23.3539 14.6768 22.847 13.9711 22.4832C12.9991 21.9819 12.0898 21.586 11.2431 21.2953C10.3307 20.982 9.62671 20.7949 9.13111 20.734C8.37545 20.6409 7.63556 20.7288 6.91142 20.9977C6.69077 21.0803 6.49113 21.2426 6.3125 21.4846" stroke="#F6ED7D" stroke-width="0.260659"/>
<path d="M14.9863 27.0618L14.9811 27.0187C14.9785 26.9926 14.964 26.9974 14.9377 27.0331C14.8633 27.134 14.7547 27.1462 14.612 27.0696C14.5069 27.0139 14.204 26.9134 13.7031 26.7681C13.4431 26.6932 13.1454 26.5801 12.81 26.4287C12.4317 26.2581 11.9431 26.064 11.3442 25.8465C11.0605 25.7429 10.7554 25.5789 10.4288 25.3544C10.1232 25.1446 9.83116 24.9645 9.55271 24.8139C8.31459 24.1482 7.27086 23.2109 6.42151 22.0021C6.3919 21.96 6.37186 21.9121 6.36278 21.8616C6.35371 21.8111 6.35582 21.7593 6.36898 21.7097C6.39875 21.6018 6.37992 21.5274 6.3125 21.4865" stroke="#DDD539" stroke-width="0.260659"/>
<path d="M54.4222 26.2084C54.1797 26.54 54.2891 26.7375 54.7506 26.801C55.7426 26.9377 56.5854 26.9603 57.2789 26.8689C57.644 26.8202 58.0087 26.7697 58.373 26.7175C58.8038 26.6557 59.1611 26.5722 59.4448 26.4669C60.4683 26.0874 61.3308 25.4791 62.0322 24.6419C62.3203 24.2973 62.4858 24.0911 62.5287 24.0232C62.6784 23.79 62.7563 23.5302 62.7625 23.2439C62.766 23.0759 62.702 22.9236 62.5707 22.787" stroke="#DAD6B4" stroke-width="0.260659"/>
<path d="M62.5723 22.7869C62.3989 22.4397 62.1126 22.2674 61.7133 22.27C61.1967 22.2735 60.6818 22.2996 60.1687 22.3483C59.5418 22.4084 58.9403 22.562 58.3641 22.8091C57.1838 23.3156 56.1247 24.007 55.1869 24.8834C54.8778 25.1732 54.6235 25.6148 54.4238 26.2083" stroke="#F5ED84" stroke-width="0.260659"/>
<path d="M62.5723 22.7862C62.6213 23.0194 62.5767 23.2183 62.4383 23.3828C62.4121 23.415 62.3924 23.4524 62.3792 23.495C62.325 23.6725 62.2015 23.7635 62.0089 23.7678C61.9881 23.7678 61.9677 23.7725 61.9495 23.7813C61.9313 23.7901 61.9156 23.803 61.9038 23.8187C61.5991 24.2373 61.2335 24.5946 60.8071 24.8905C60.0216 25.4361 59.1705 25.8182 58.2538 26.0366C57.6855 26.1715 57.2074 26.2672 56.8195 26.3238C56.3318 26.396 55.8397 26.4025 55.3432 26.3434C55.3161 26.3399 55.169 26.2981 54.9019 26.218C54.7496 26.1719 54.5902 26.1684 54.4238 26.2076" stroke="#E0D448" stroke-width="0.260659"/>
<path d="M64.6813 31.3293L63.6857 31.2288C63.6323 31.2236 63.5912 31.2258 63.5623 31.2353C63.4125 31.2867 63.2878 31.3093 63.1879 31.3032C62.3211 31.2475 61.7848 31.2366 61.579 31.2706C60.8006 31.3985 60.0883 31.6826 59.4421 32.123C59.4062 32.1468 59.3787 32.181 59.3633 32.2209C59.2363 32.5594 59.1584 32.9088 59.1295 33.2691C59.1261 33.312 59.1382 33.3542 59.1636 33.3879C59.3519 33.629 59.5879 33.7934 59.8716 33.8813C60.558 34.0937 61.269 34.1346 62.0045 34.004C62.5833 33.9022 63.2322 33.7008 63.951 33.3997C64.5937 33.1316 65.0171 32.9506 65.2211 32.8566C65.2566 32.8406 65.2866 32.8085 65.3052 32.7665C65.3393 32.6891 65.3818 32.6421 65.4326 32.6256C65.4584 32.6171 65.4819 32.6029 65.5014 32.5842C65.5209 32.5654 65.5359 32.5425 65.5453 32.5173C65.5546 32.4921 65.5581 32.4651 65.5554 32.4384C65.5527 32.4117 65.544 32.386 65.5298 32.3632C65.4212 32.1883 65.3739 32.0199 65.3879 31.858C65.4142 31.5421 65.3266 31.3789 65.1252 31.3685C65.0184 31.3624 64.9168 31.3376 64.8205 31.2941C64.7978 31.2836 64.775 31.2775 64.7522 31.2758C64.5832 31.2619 64.5605 31.2749 64.6839 31.315C64.7251 31.3289 64.7242 31.3337 64.6813 31.3293Z" stroke="#F2EB96" stroke-width="0.260659"/>
<path d="M7.98451 33.7527C7.97838 33.8162 7.97487 33.8158 7.974 33.7514C7.974 33.4799 7.95692 33.4055 7.92278 33.5282C7.71876 34.2644 7.7748 34.9458 8.09089 35.5724C8.27302 35.9318 8.51819 36.1829 8.82641 36.3256C9.16352 36.4831 9.53697 36.5223 9.94676 36.4431C10.5501 36.3273 11.1551 36.2246 11.7619 36.135C12.7776 35.9862 13.7587 35.7142 14.7053 35.3191C15.1948 35.1155 15.5608 34.8788 15.8033 34.609C15.8322 34.5777 15.8498 34.5378 15.8532 34.4954C15.8751 34.1848 15.7744 33.918 15.5511 33.6952C15.1825 33.328 14.7495 33.0687 14.2522 32.9172C13.0499 32.5517 11.8276 32.4247 10.5851 32.5361C10.4196 32.5509 10.1665 32.5617 9.82592 32.5687C9.56937 32.5731 9.31632 32.6005 9.06677 32.6509C8.74979 32.7145 8.509 32.8267 8.34438 32.9877C8.13774 33.1896 8.01778 33.4446 7.98451 33.7527Z" stroke="#F5ED84" stroke-width="0.260659"/>
<path d="M61.1833 40.8309C61.1552 41.1233 61.1447 41.4161 61.1517 41.7094C61.1517 41.7146 61.1482 41.8029 61.1412 41.9744C61.1316 42.2372 61.2375 42.4408 61.4591 42.5853C61.9757 42.9212 62.5313 43.1949 63.1258 43.4064C63.6442 43.5918 64.2444 43.7293 64.9265 43.8189C66.2023 43.9868 67.4846 43.9908 68.7735 43.8306C69.1378 43.7854 69.3457 43.6013 69.3974 43.2785C69.4648 42.8607 69.4355 42.3268 69.3094 41.6768C69.2551 41.3965 69.0984 41.2142 68.8392 41.1298" stroke="#D4D4BA" stroke-width="0.260659"/>
<path d="M68.8364 41.1319C66.6666 40.293 64.3396 39.7382 61.8555 39.4675C61.662 39.4466 61.5132 39.5176 61.409 39.6803C61.226 39.9657 61.1498 40.35 61.1804 40.8329" stroke="#F6ED81" stroke-width="0.260659"/>
<path d="M68.8337 41.1306L69.0123 41.3786C69.043 41.4212 69.0618 41.4587 69.0688 41.4908C69.1196 41.7424 69.1559 41.9956 69.1778 42.2506C69.1944 42.442 69.1616 42.5956 69.0793 42.7114C68.969 42.8645 68.824 42.9585 68.6445 42.9933C68.3556 43.0499 68.0084 43.066 67.603 43.0416C67.4393 43.0312 67.2545 43.0403 67.0487 43.0691C66.8605 43.096 66.6722 43.1052 66.484 43.0965C65.9533 43.0721 65.6802 43.0599 65.6644 43.0599C64.4 43.0538 63.2306 42.714 62.1562 42.0404C62.1219 42.0191 62.0804 42.0082 62.0367 42.0091C61.725 42.0143 61.4658 41.9094 61.2592 41.6945C61.2279 41.6616 61.2097 41.6217 61.2079 41.5822L61.1777 40.8316" stroke="#DBD24C" stroke-width="0.260659"/>
<path d="M14.2978 42.0092C13.6375 42.1119 12.9883 42.2624 12.35 42.4608C12.3412 42.4643 12.1477 42.5157 11.7694 42.6149C11.5759 42.6653 11.3456 42.7432 11.0786 42.8485C10.2835 43.1592 9.6281 43.4612 9.11236 43.7545C9.01867 43.8084 8.92454 43.8772 8.82998 43.9607C8.74242 44.039 8.65354 44.1156 8.56335 44.1905C8.47667 44.2636 8.35452 44.3876 8.19691 44.5625C8.06294 44.7122 7.90139 44.8532 7.71225 44.9854C7.48197 45.1473 7.34493 45.3631 7.30115 45.6329C7.27576 45.7887 7.30947 45.9218 7.40228 46.0324C7.50823 46.1594 7.64177 46.2321 7.80288 46.2504C8.28972 46.3043 8.80458 46.2904 9.34747 46.2086C9.70209 46.1546 10.2038 46.048 10.8527 45.8888C12.7641 45.4214 14.4317 44.6417 15.8555 43.5495C16.0507 43.3998 16.1541 43.1866 16.1655 42.9099C16.1777 42.6044 16.1773 42.3947 16.1641 42.2807C16.1309 41.997 15.9268 41.8547 15.5521 41.8538C15.1116 41.8521 14.6734 41.8791 14.2373 41.9348C14.0911 41.953 14.1108 41.9726 14.2965 41.9935C14.3385 41.9979 14.3389 42.0031 14.2978 42.0092Z" stroke="#F5EC8A" stroke-width="0.260659"/>
<path d="M60.5776 46.3808C60.6109 46.3669 60.6078 46.349 60.5684 46.3273C60.4388 46.2568 60.3075 46.1889 60.1744 46.1236C60.1587 46.1167 60.1446 46.1071 60.1324 46.0949C60.0299 45.9922 60.0299 45.9727 60.1324 46.0362C60.1455 46.044 60.1587 46.0505 60.1718 46.0558C60.5247 46.188 60.5058 46.155 60.1153 45.9566C60.0855 45.9418 60.0562 45.9231 60.0273 45.9004C59.7786 45.7081 59.5641 45.6037 59.3837 45.5871C59.185 45.5689 59.0011 45.5079 58.8321 45.4044C58.2034 45.0215 57.5349 44.9279 56.8265 45.1237C56.7713 45.1394 56.6768 45.1503 56.5428 45.1564C56.415 45.1616 56.3261 45.2138 56.2762 45.313C56.1361 45.5924 56.1584 45.8913 56.3432 46.2098C57.0901 47.4952 58.0546 48.5921 59.2366 49.5007C60.3714 50.3718 61.5334 51.0088 62.7225 51.4117C62.8985 51.4718 63.0775 51.5201 63.2596 51.5566C63.6011 51.6263 63.7596 51.5197 63.7351 51.2368C63.6572 50.3561 63.4037 49.5294 62.9746 48.7566C62.8827 48.5904 62.7588 48.4799 62.6029 48.425C62.5603 48.4098 62.5257 48.3841 62.5044 48.3519C62.1051 47.7584 61.6135 47.2541 61.0295 46.839C60.9489 46.7816 60.7952 46.6397 60.5684 46.4134C60.5662 46.4111 60.5646 46.4082 60.5638 46.405C60.5631 46.4018 60.5631 46.3985 60.564 46.3952C60.565 46.392 60.5667 46.389 60.5691 46.3865C60.5714 46.3839 60.5744 46.382 60.5776 46.3808Z" stroke="#F5ED86" stroke-width="0.260659"/>
<path d="M18.0214 52.2908C18.7499 51.6816 19.4093 50.9323 19.9994 50.0429C20.3523 49.512 20.6054 49.1226 20.7586 48.8746C20.805 48.7989 20.8457 48.6957 20.8807 48.5652C20.9096 48.4547 20.9499 48.3494 21.0016 48.2493C21.1364 47.9865 21.2087 47.8372 21.2183 47.8016C21.3304 47.3786 21.1075 47.1876 20.5498 47.2285C19.5297 47.3025 18.6055 47.5244 17.7771 47.8942C17.3218 48.097 16.8253 48.4303 16.2877 48.8942C15.7256 49.3798 15.1796 49.8832 14.6499 50.4045C13.9967 51.0476 13.5107 51.796 13.192 52.6497C13.079 52.9517 13.058 53.2441 13.1289 53.527C13.199 53.8054 13.3601 53.9664 13.6123 54.0099C13.7112 54.0274 13.8925 54.0374 14.156 54.04C14.3206 54.0417 14.5036 54.023 14.705 53.9838C15.3574 53.8577 15.9528 53.6497 16.4913 53.3599C16.9606 53.1075 17.4707 52.7511 18.0214 52.2908Z" stroke="#F6ED81" stroke-width="0.260659"/>
<path d="M52.0879 50.7545C52.1115 51.1348 52.2035 51.5346 52.3637 51.9541C52.707 52.8522 53.1469 53.6554 53.6837 54.3638C54.5033 55.4447 55.3194 56.5277 56.1319 57.6129" stroke="#D1D498" stroke-width="0.260659"/>
<path d="M56.1209 57.6122C56.3494 57.8872 56.5162 58.046 56.6213 58.0887C56.9479 58.2201 57.1291 58.1448 57.165 57.8628C57.1904 57.6714 57.2044 57.5678 57.2071 57.5521C57.3787 56.7759 57.3669 56.0327 57.1716 55.3226C57.056 54.9031 56.887 54.3783 56.6646 53.7483C56.3801 52.9424 56.187 52.4268 56.0854 52.2014C55.4786 50.8629 54.5097 49.8199 53.1788 49.0724C52.7979 48.8574 52.5006 48.8983 52.287 49.1951C51.9823 49.6198 51.9122 50.1393 52.0768 50.7537" stroke="#F5ED84" stroke-width="0.260659"/>
<path d="M56.1319 57.6129C56.2247 57.6363 56.3105 57.6751 56.3894 57.729C56.4288 57.756 56.4625 57.7717 56.4905 57.776C56.5614 57.7873 56.5964 57.7656 56.5956 57.7108C56.5947 57.6777 56.5772 57.6416 56.543 57.6024C56.395 57.4327 56.2471 57.2634 56.0991 57.0946C56.0159 57.0006 55.9183 56.8418 55.8062 56.6182C55.7029 56.4102 55.5562 56.2326 55.3662 56.0856C55.3058 56.0377 55.2681 55.9798 55.2532 55.9119C55.2419 55.8606 55.2243 55.8223 55.2007 55.7971C54.3522 54.8642 53.6145 53.7898 52.9876 52.5741C52.668 51.9527 52.4377 51.3592 52.2967 50.7935C52.2931 50.7794 52.2837 50.7659 52.2695 50.7546C52.2554 50.7433 52.237 50.7346 52.2166 50.7296C52.1641 50.7174 52.1339 50.6713 52.126 50.5912C52.105 50.3797 52.0923 50.4341 52.0879 50.7544" stroke="#D7D22C" stroke-width="0.260659"/>
<path d="M24.142 59.1398C24.3652 59.2146 24.5811 59.2334 24.7895 59.1959C24.9567 59.1655 25.1419 59.0724 25.3451 58.9166C26.0456 58.377 26.5341 57.6843 26.8108 56.8384C26.9317 56.4694 26.993 56.2823 26.9947 56.2771C27.2924 55.4686 27.6238 54.6741 27.989 53.8935C28.3305 53.1633 28.4347 52.4006 28.3016 51.6052C28.2534 51.3223 28.1129 51.1718 27.88 51.1535C27.7206 51.1413 27.5485 51.1831 27.3638 51.2788C27.2307 51.3476 27.0985 51.4576 26.9671 51.6091C26.4041 52.2583 25.9558 52.9958 25.6222 53.8217C25.1353 55.0287 24.7413 56.2144 24.4401 57.3788C24.4279 57.4267 24.3976 57.4585 24.3495 57.4741C24.3273 57.4815 24.3076 57.4916 24.2917 57.5038C24.2758 57.516 24.2641 57.5299 24.2575 57.5446C24.0456 58.0346 23.9813 58.5363 24.0645 59.0497C24.0681 59.0703 24.0772 59.0895 24.0908 59.1053C24.1044 59.1212 24.1221 59.1331 24.142 59.1398Z" stroke="#F3EB8E" stroke-width="0.260659"/>
<path d="M46.6245 58.5998C46.818 58.7895 47.0715 58.9113 47.385 58.9653C47.4486 58.976 47.514 58.9676 47.5728 58.9411C47.6315 58.9146 47.681 58.8712 47.7147 58.8165C47.966 58.4066 48.0776 57.9384 48.0496 57.4119C48.0198 56.8384 47.8368 55.8911 47.5006 54.5701C47.3474 53.967 47.1933 53.3639 47.0383 52.7608C47.026 52.7156 46.9958 52.5289 46.9476 52.2008C46.9196 52.0085 46.8588 51.8257 46.7651 51.6526C46.7428 51.6111 46.7121 51.5757 46.6757 51.5496C46.6394 51.5234 46.5983 51.5072 46.5562 51.5024L45.3492 51.3719C45.3222 51.369 45.2949 51.3718 45.2687 51.3801C45.2426 51.3884 45.2182 51.402 45.197 51.4202C45.1758 51.4384 45.1581 51.4608 45.145 51.4861C45.1319 51.5114 45.1236 51.5391 45.1207 51.5677C45.0392 52.3483 45.0747 53.145 45.2271 53.9579C45.4442 55.1144 45.6872 56.2653 45.956 57.4106C46.0637 57.8736 46.2866 58.27 46.6245 58.5998Z" stroke="#F2EB96" stroke-width="0.260659"/>
<path d="M39.2002 54.7436C39.2081 54.5225 39.1503 54.2775 39.0268 54.0086C38.8745 53.6736 38.6989 53.3799 38.5001 53.1275C38.2698 52.8342 37.9962 52.6497 37.6792 52.574C37.1302 52.4444 36.8675 52.7076 36.8912 53.3638C36.9052 53.7476 36.9122 53.9434 36.9122 53.9512C36.8772 55.7239 36.8321 57.4966 36.7769 59.2693C36.7612 59.7654 36.7577 60.2444 36.7664 60.7065C36.776 61.1852 36.7861 61.6638 36.7966 62.1425C36.8045 62.474 36.9761 62.6241 37.3115 62.5928C37.5724 62.5684 37.7585 62.4183 37.8697 62.1425C38.1254 61.5098 38.2987 60.9589 38.3898 60.4898C38.621 59.3028 38.8245 58.1114 39.0005 56.9157C39.1065 56.1951 39.173 55.4711 39.2002 54.7436Z" stroke="#F3EB8E" stroke-width="0.260659"/>
<path d="M22.8175 27.7453C22.8604 27.8071 22.9151 27.8537 22.9817 27.885C23.0876 27.9346 23.1494 27.9651 23.1669 27.9764C23.7859 28.3924 24.4361 28.754 25.1173 29.0612C25.3073 29.1465 25.4662 29.2718 25.5941 29.4371C25.7832 29.6843 26.0288 29.8187 26.3309 29.8405C26.3764 29.844 26.3804 29.8318 26.3427 29.8039C25.4347 29.1373 24.4842 28.5355 23.4913 27.9986C23.1279 27.801 22.8622 27.6192 22.694 27.4529C22.6441 27.4033 22.603 27.3872 22.5706 27.4046C22.562 27.4089 22.5548 27.4155 22.5497 27.4236C22.5446 27.4318 22.5416 27.4413 22.5411 27.4515C22.5406 27.4616 22.5425 27.472 22.5467 27.4818C22.551 27.4916 22.5573 27.5005 22.5653 27.5078L22.7256 27.6579C22.7842 27.7118 22.8149 27.741 22.8175 27.7453Z" stroke="#E1C53F" stroke-width="0.260659"/>
<path d="M49.0058 40.614C49.0215 40.762 49.075 40.8951 49.166 41.0135C49.1794 41.0308 49.1964 41.0442 49.215 41.0523C49.2336 41.0604 49.253 41.0628 49.2711 41.0592C49.3446 41.0453 49.356 40.9922 49.3052 40.8999C49.0548 40.4483 48.8088 39.994 48.5671 39.5371C48.3797 39.1838 48.2755 38.8875 48.2545 38.6481C48.2309 38.3792 48.2392 37.9885 48.2795 37.4759C48.3022 37.1905 48.3027 36.9437 48.2808 36.7358C48.2536 36.4834 48.2168 36.238 48.1704 35.9995C48.1599 35.9421 48.1477 35.9417 48.1337 35.9982C47.9953 36.5421 47.9599 37.113 48.0273 37.7109C48.0325 37.7544 48.0347 37.7983 48.0338 37.8427C48.0303 38.277 48.0864 38.6655 48.202 39.0084C48.2457 39.1381 48.3224 39.3348 48.4318 39.5985C48.5132 39.7943 48.6082 39.9831 48.7168 40.165C48.7282 40.185 48.7549 40.249 48.7969 40.3569C48.825 40.43 48.8727 40.4852 48.9401 40.5227C48.9583 40.5327 48.9738 40.5462 48.9852 40.5621C48.9967 40.578 49.0037 40.5958 49.0058 40.614Z" stroke="#E1C53F" stroke-width="0.260659"/>
<path d="M55.124 26.1954C55.5005 26.2224 55.8779 26.2272 56.2562 26.2098C56.3026 26.208 56.3026 26.2054 56.2562 26.2019C55.8779 26.175 55.4997 26.1702 55.1214 26.1876C55.0759 26.1893 55.0767 26.1919 55.124 26.1954Z" stroke="#F8E82A" stroke-width="0.260659"/>
<path d="M59.8203 49.6719C60.2231 49.9591 60.6771 50.1549 61.1823 50.2593C61.2243 50.268 61.2261 50.2615 61.1876 50.2398C60.2165 49.7124 59.3514 49.0519 58.5922 48.2582C58.4749 48.1355 58.3134 47.981 58.1076 47.7948C57.9403 47.6442 57.7836 47.4828 57.6374 47.3105C57.6225 47.2931 57.6067 47.2792 57.5901 47.2687C57.4623 47.1921 57.4483 47.2213 57.5481 47.3562C57.9071 47.8418 58.3029 48.2926 58.7354 48.7085C59.2398 49.1941 59.6014 49.5153 59.8203 49.6719Z" stroke="#F7E82C" stroke-width="0.260659"/>
<path d="M61.1585 50.383C61.3669 50.5684 61.5964 50.6955 61.8468 50.7642C62.2242 50.8686 62.4155 50.9217 62.4207 50.9235C62.75 51.047 63.0805 51.1676 63.4124 51.285C63.4746 51.3068 63.5021 51.2924 63.4951 51.242C63.4926 51.2256 63.4853 51.2091 63.4738 51.1935C63.4622 51.1779 63.4466 51.1637 63.4281 51.1519C62.9947 50.8778 62.528 50.6833 62.028 50.5684C61.937 50.5475 61.8008 50.4979 61.6196 50.4196C61.4786 50.3578 61.3319 50.3273 61.1796 50.3282C61.1253 50.3282 61.1183 50.3465 61.1585 50.383Z" stroke="#DCD542" stroke-width="0.260659"/>
<path d="M35.8399 5.13851C35.8276 5.6128 35.7983 6.00267 35.7519 6.30813C35.5408 7.70663 35.3543 9.10861 35.1923 10.5141C34.8745 13.285 34.6608 14.9389 34.5514 15.4758C34.5041 15.709 34.3828 15.8687 34.1876 15.9549C34.0387 16.0202 33.8575 16.0537 33.6438 16.0554C33.2892 16.0571 33.058 15.8766 32.9503 15.5137C32.9407 15.4797 32.9188 15.4445 32.8847 15.4079C32.8575 15.3801 32.8413 15.3509 32.8361 15.3205C32.351 12.6645 32.1785 10.0511 32.3186 7.48036C32.3475 6.94951 32.4569 6.41213 32.6469 5.86822C32.7993 5.42874 32.9293 5.10718 33.037 4.90354C33.1999 4.59199 33.4162 4.31525 33.6859 4.07332C33.9004 3.881 34.1403 3.76525 34.4056 3.72609C34.6595 3.6878 34.9082 3.72914 35.1516 3.8501C35.6262 4.08507 35.8556 4.51454 35.8399 5.13851Z" fill="#FAEA1C"/>
<path d="M43.7048 8.72112C43.7057 8.82555 43.7315 8.83904 43.7823 8.76159C44.1938 8.13588 44.5218 7.4697 44.7661 6.76305C44.8808 6.45237 44.9898 6.13995 45.0931 5.82579C45.2315 5.40807 45.365 5.10653 45.4937 4.92117C45.8212 4.44949 46.2857 4.08181 46.8872 3.81812C47.0895 3.72935 47.2765 3.69585 47.4481 3.71761C47.5838 3.73588 47.7537 3.80028 47.9577 3.9108C48.3027 4.09791 48.5067 4.38509 48.5697 4.77235C48.6459 5.23707 48.6376 5.80534 48.5448 6.47718C48.4905 6.87227 48.3854 7.43054 48.2296 8.15198C48.1008 8.74723 47.9371 9.2894 47.7383 9.77848C47.2419 10.9986 46.6399 12.1651 45.9324 13.2782C45.7362 13.5863 45.4718 13.9187 45.1391 14.2755C44.8475 14.5888 44.5634 14.9086 44.2867 15.235C44.0695 15.4917 43.809 15.7088 43.5052 15.8863C43.3493 15.9769 43.2114 15.9547 43.0914 15.8198C42.9347 15.6422 42.8647 15.4299 42.8813 15.1827C42.9006 14.9156 42.9102 14.779 42.9102 14.7729C42.8839 13.3483 42.901 11.9241 42.9614 10.5004C42.9623 10.4742 42.9654 10.4742 42.9706 10.5004C42.9951 10.6205 43.0135 10.6257 43.0258 10.516C43.1002 9.85898 43.3265 9.26068 43.7048 8.72112Z" fill="#FDEB0B"/>
<path d="M44.7644 6.76184C44.5201 7.46849 44.1922 8.13466 43.7806 8.76038C43.7298 8.83783 43.704 8.82434 43.7031 8.71991C44.0183 8.18644 44.2929 7.63253 44.5266 7.05816C44.5328 7.04337 44.5407 7.04337 44.5503 7.05816C44.5617 7.07557 44.5739 7.07731 44.5871 7.06338C44.6125 7.03728 44.63 7.00638 44.6396 6.9707C44.7079 6.70875 44.7495 6.63913 44.7644 6.76184Z" fill="#F3E57B"/>
<path d="M24.8235 15.376C24.8148 15.2716 24.7867 15.1746 24.7395 15.0849C24.7009 15.0118 24.6296 14.9452 24.5254 14.8852C22.6708 13.8035 21.4323 12.1857 20.8097 10.0318C20.7694 9.89169 20.7572 9.74897 20.7729 9.60363C20.7817 9.52792 20.7418 9.46918 20.6534 9.42741C20.6363 9.41905 20.6218 9.40652 20.6114 9.39113C20.601 9.37574 20.5951 9.35806 20.5943 9.33995L20.5877 9.17547C20.5588 8.86479 20.6398 8.66072 20.8307 8.56325C21.2563 8.34655 21.7243 8.37875 22.2348 8.65985C23.4825 9.34996 24.5875 10.2193 25.5498 11.268C26.1383 11.9102 26.4036 12.6704 26.3458 13.5485C26.3046 14.1751 26.1553 14.7729 25.8979 15.3421C25.8897 15.3609 25.8776 15.3776 25.8624 15.3912C25.8471 15.4047 25.8292 15.4147 25.8099 15.4204C25.4798 15.5214 25.151 15.5066 24.8235 15.376Z" fill="#FDEB12"/>
<path d="M20.5893 9.17688L20.5959 9.34136C20.5967 9.35947 20.6026 9.37715 20.613 9.39254C20.6234 9.40793 20.6379 9.42046 20.655 9.42882C20.7434 9.47059 20.7833 9.52933 20.7745 9.60504C20.7588 9.75038 20.771 9.8931 20.8113 10.0332C21.4339 12.1871 22.6724 13.8049 24.527 14.8866C24.6312 14.9467 24.7025 15.0132 24.7411 15.0863C24.7884 15.176 24.8164 15.273 24.8251 15.3774C24.5047 15.2321 24.2069 15.0533 23.932 14.8409C23.7875 14.7304 23.524 14.5098 23.1413 14.1791C21.9303 13.1304 21.1055 11.8216 20.6668 10.2525C20.5679 9.89832 20.5421 9.53978 20.5893 9.17688Z" fill="#B3B940"/>
<path d="M58.1263 12.2058C57.5466 12.0979 56.9884 12.1666 56.4517 12.412L56.1194 12.4055C55.9994 12.4038 55.992 12.3746 56.097 12.318C56.6522 12.0204 57.2436 11.9169 57.8715 12.0074C57.9503 12.0187 58.0352 12.0848 58.1263 12.2058Z" fill="#F3E57B"/>
<path d="M58.1245 12.2054C58.367 12.376 58.4655 12.6388 58.42 12.9939C58.1906 14.7857 57.3793 16.1429 55.9862 17.0654C55.9381 17.0976 55.5108 17.3517 54.7043 17.8277C54.1886 18.1314 53.7499 18.3668 53.3883 18.5339C52.7176 18.842 51.9623 18.9891 51.1226 18.9752C51.0769 18.9743 51.0353 18.959 51.0057 18.9321C50.8472 18.7894 50.7575 18.5613 50.7365 18.2481C50.6629 17.1359 50.9987 16.2508 51.7439 15.5929C51.7614 15.5772 51.8437 15.4872 51.9908 15.3227C52.0617 15.2435 52.1484 15.1821 52.2509 15.1386C52.2929 15.1204 52.3266 15.0951 52.352 15.0629C52.563 14.7827 52.8209 14.5525 53.1256 14.3724C53.1974 14.3297 53.2464 14.2971 53.2727 14.2745C54.1448 13.533 55.1084 12.9399 56.1635 12.4952C56.2546 12.4569 56.35 12.4291 56.4499 12.4117C56.9866 12.1663 57.5448 12.0975 58.1245 12.2054Z" fill="#FBEA18"/>
<path d="M17.1561 15.2911C18.5938 15.3207 19.8429 15.8133 20.9033 16.7688C21.0425 16.895 21.1686 17.0321 21.2815 17.18C21.3884 17.3201 21.4702 17.485 21.5271 17.6748C21.803 18.5894 21.8095 19.4775 21.5468 20.339C21.44 20.6889 21.1773 20.8625 20.7588 20.8599C19.9874 20.8547 19.388 20.7546 18.9607 20.5596C18.5938 20.3917 18.1919 20.0401 17.755 19.5049C17.1018 18.7043 16.5484 17.8401 16.0948 16.9124C15.9924 16.7027 15.9175 16.4829 15.8702 16.2532C15.8037 15.9303 15.8982 15.6797 16.1539 15.5013C16.3658 15.3525 16.6999 15.2824 17.1561 15.2911Z" fill="#FDEB12"/>
<path d="M44.7996 43.2758C44.7348 43.3681 44.7129 43.4895 44.7339 43.64C44.7759 43.9394 44.7869 44.3092 44.7667 44.7496C44.7597 44.8984 44.8543 45.0459 45.0504 45.1921C45.0665 45.2044 45.0852 45.213 45.1052 45.2173C45.1252 45.2216 45.1459 45.2214 45.166 45.2169C45.3709 45.1691 45.574 45.1147 45.7754 45.0537C45.9943 44.9876 46.1375 44.8867 46.2049 44.7509C46.289 44.5803 46.2929 44.3841 46.2167 44.1622C46.1318 43.5974 46.0136 43.0395 45.8621 42.4887C45.6432 41.688 45.4839 40.8565 45.384 39.9941C45.3639 39.8227 45.4396 39.7239 45.6113 39.6978C45.7916 39.6699 45.9628 39.6704 46.1248 39.6991C46.2728 39.7243 46.4116 39.807 46.5412 39.9471C47.2084 40.6642 47.7753 41.4927 48.242 42.4325C48.2711 42.4907 48.3173 42.5388 48.3745 42.5704C48.4317 42.6021 48.4972 42.6159 48.5625 42.6101C48.8042 42.5892 48.9513 42.4191 49.0038 42.0997C49.0643 41.7255 49.0043 41.3804 48.8239 41.0645C48.6785 40.8087 48.6037 40.6768 48.5993 40.669C48.4399 40.3305 48.2048 39.817 47.894 39.1286C47.619 38.5177 47.5617 37.9003 47.7219 37.2763C47.7605 37.1249 47.8047 36.7441 47.8546 36.1341C47.9343 35.1429 47.7443 34.2078 47.2846 33.3288C46.8135 32.429 46.3411 31.5296 45.8674 30.6306C45.3902 29.7238 45.0951 28.77 44.9821 27.7692C44.9103 27.1278 44.8915 26.5696 44.9256 26.0944C44.9668 25.5296 45.0986 24.9796 45.321 24.4444C45.5233 23.9553 45.7641 23.4858 46.0434 23.0359C46.6546 22.0525 47.4811 21.3254 48.5231 20.8546C48.6658 20.7894 48.9097 20.711 49.2547 20.6197C49.4219 20.5761 49.5861 20.5248 49.7472 20.4656C49.9329 20.3977 50.0984 20.3729 50.2437 20.3912C50.9144 20.4739 51.3233 20.8076 51.4704 21.3924C51.5352 21.6527 51.516 22.0582 51.4127 22.6091C51.3163 23.1251 51.2288 23.6425 51.15 24.1612C50.995 25.1785 50.9162 25.6976 50.9136 25.7185C50.8076 26.6053 50.8299 27.442 50.9805 28.2287C51.3045 29.9161 51.8168 31.5457 52.5172 33.1174C52.7449 33.6273 52.9651 34.1412 53.1779 34.659C53.6682 35.8521 53.8727 37.0944 53.7913 38.3859C53.7571 38.9124 53.6967 39.435 53.61 39.9536C53.5242 40.468 53.3968 40.9766 53.2278 41.4796C52.7112 43.0226 51.9897 44.3928 51.0633 45.5903C50.4127 46.4309 49.6163 47.1484 48.6742 47.7428C47.9588 48.1936 47.1615 48.5452 46.2824 48.7976C44.483 49.3136 42.6399 49.415 40.7529 49.1017C40.7424 49.1 40.5717 49.083 40.2407 49.0508C40.0585 49.0334 39.8405 48.9895 39.5866 48.919C38.2539 48.5482 37.0893 48.0661 36.0929 47.4726C34.7059 46.6467 33.2335 46.0162 31.6758 45.5811C30.5673 45.2713 29.5459 45.1791 28.6116 45.3044C27.6896 45.428 26.7706 45.572 25.8547 45.7365C25.0833 45.8748 24.3058 45.9357 23.5221 45.9192C22.6544 45.9009 21.9565 45.5737 21.4285 44.9376C21.1623 44.6164 21.006 44.2274 20.9596 43.7706C20.8703 42.889 21.2372 42.3386 22.0602 42.1193C22.0909 42.1106 22.1242 42.1084 22.1601 42.1127C22.2468 42.1232 22.2879 42.1162 22.2835 42.0918C22.2824 42.0858 22.2819 42.0796 22.2823 42.0737C22.2827 42.0678 22.2838 42.0623 22.2856 42.0575C22.2875 42.0527 22.29 42.0488 22.293 42.046C22.296 42.0431 22.2995 42.0414 22.3032 42.0409L24.7843 41.8151C24.8719 41.8073 24.8859 41.7933 24.8263 41.7733C24.8176 41.7707 24.8044 41.7694 24.7869 41.7694C24.7799 41.7694 24.7795 41.769 24.7856 41.7681C26.2207 41.6567 27.6397 41.437 29.0424 41.1089C29.4583 41.0114 29.9631 40.7917 30.5568 40.4497C30.886 40.2608 30.9793 40.0106 30.8365 39.6991C30.6991 39.4015 30.4675 39.1604 30.1417 38.9759C29.9561 38.8706 29.6492 38.7644 29.221 38.6574C27.4041 38.2022 25.5706 37.8272 23.7204 37.5322C22.4989 37.3372 21.3519 37.0426 20.2792 36.6484C19.8817 36.5022 19.5227 36.2903 19.2022 36.0127C18.852 35.7098 18.6256 35.3748 18.5232 35.0075C18.4094 34.6011 18.4203 34.1691 18.556 33.7113C18.6488 33.398 18.81 33.157 19.0394 32.9881C19.2014 32.8689 19.461 32.7745 19.8182 32.7049C20.5651 32.5587 21.2827 32.5513 21.9709 32.6827C22.5366 32.7915 23.2415 32.9616 24.0855 33.1931C25.1415 33.4829 25.8429 33.6643 26.1897 33.7374C27.6458 34.0455 29.2412 34.257 30.9758 34.3718C31.3777 34.3979 31.5335 34.2104 31.4433 33.8092C31.4171 33.6909 31.3138 33.5407 31.1334 33.3589C31.0257 33.2501 30.8825 33.1396 30.7039 33.0273C28.0166 31.3347 25.3189 29.659 22.6106 28.0003C22.4232 27.8845 22.0362 27.5403 21.4495 26.9677C20.6851 26.221 20.5984 25.3934 21.1894 24.4849C21.5765 23.8896 22.1351 23.582 22.8654 23.562C23.4389 23.5472 23.9844 23.659 24.5019 23.8975C25.3215 24.2743 26.1091 24.7064 26.8648 25.1937C27.4505 25.5714 27.7478 25.7629 27.7566 25.7681C28.2277 26.0648 28.6965 26.3651 29.1632 26.6688C29.7201 27.0326 30.1934 27.3237 30.5831 27.5421C31.2328 27.9076 31.8912 28.2574 32.5584 28.5916C32.8106 28.7187 33.0746 28.8109 33.3504 28.8684C33.6744 28.9354 33.8447 28.8518 33.8614 28.6177C33.8649 28.5716 33.8579 28.421 33.8403 28.1661C33.8193 27.8623 33.7151 27.5843 33.5278 27.3319C33.1766 26.8576 32.8456 26.3703 32.5348 25.8699C32.0042 25.0179 31.6903 24.521 31.5931 24.3792C30.8313 23.2748 30.0043 22.2192 29.112 21.2123C28.8747 20.9434 28.6287 20.5352 28.3739 19.9879C28.2066 19.6302 28.109 19.2843 28.081 18.9501C28.0512 18.6072 28.1274 18.2695 28.3095 17.9371C28.7368 17.1574 29.4067 16.801 30.3191 16.868C30.6833 16.895 31.0296 17.0107 31.358 17.2152C31.6741 17.4119 31.9613 17.6495 32.2196 17.928C32.8229 18.5772 33.4122 19.239 33.9875 19.9135C34.6687 20.7132 35.2427 21.3703 35.7094 21.8846C37.0955 23.4145 38.5468 25.0775 40.0634 26.8737C40.6308 27.5464 41.0852 28.2631 41.4267 29.0237C41.5896 29.3857 41.671 29.6981 41.671 29.961C41.6719 30.3134 41.5769 30.6358 41.386 30.9282C41.2905 31.0753 41.0524 31.3077 40.6715 31.6253C40.3641 31.8812 40.1229 32.114 39.9478 32.3237C39.7385 32.5752 39.5424 32.7871 39.3594 32.9594C39.1089 33.1952 38.8931 33.3854 38.7118 33.5299C38.4264 33.7596 38.1046 33.9324 37.7465 34.0481C37.2176 34.2187 36.6883 34.3871 36.1585 34.5533C35.8985 34.6351 35.7085 34.7904 35.5885 35.0193C35.5123 35.1638 35.5207 35.3039 35.6135 35.4396C35.8385 35.7677 36.1358 35.9818 36.5053 36.0819C36.6682 36.1254 36.8512 36.1093 37.0543 36.0336C37.9089 35.7151 38.4903 35.5336 38.7985 35.4892C39.288 35.4196 39.6658 35.5393 39.932 35.8482C40.0572 35.9944 40.1049 36.1698 40.0752 36.3743C40.0673 36.4265 40.0187 36.5923 39.9294 36.8716C39.6658 37.6914 39.3169 38.4742 38.8826 39.22C38.5323 39.8205 38.0722 40.7691 37.5022 42.0657C37.412 42.2694 37.3932 42.45 37.4457 42.6075C37.4974 42.7641 37.6221 42.8616 37.82 42.8999C38.1589 42.966 38.4404 42.8464 38.6646 42.5409C38.9299 42.1797 39.0678 41.9561 39.0783 41.8699C39.0905 41.7603 39.1098 41.759 39.1361 41.866C39.1413 41.8895 39.1483 41.8899 39.1571 41.8673C39.4942 40.9788 39.9219 40.2669 40.4403 39.7317C40.647 39.5194 40.9298 39.4567 41.2888 39.5437C41.3074 39.5484 41.3243 39.5587 41.3371 39.5733C41.35 39.588 41.3583 39.6063 41.361 39.626C41.4109 40.0115 41.4039 40.3931 41.34 40.7708C41.2524 41.2877 41.2082 41.5492 41.2073 41.5553C41.0804 42.5892 40.9425 43.3167 40.7936 43.7379C40.6237 44.2174 40.6772 44.643 40.9539 45.0146C41.0563 45.1512 41.192 45.2043 41.361 45.1738C41.6079 45.1303 41.7822 45.0233 41.8838 44.8527C41.9109 44.8066 41.9656 44.6265 42.0479 44.3123C42.3912 42.9965 42.7064 41.6728 42.9936 40.3413C43.0304 40.1716 43.1363 40.089 43.3115 40.0933C43.4971 40.0968 43.6613 40.1625 43.804 40.2904C43.8986 40.3757 43.9887 40.5176 44.0746 40.716C44.4292 41.534 44.6708 42.3873 44.7996 43.2758ZM22.8247 27.7457C22.8676 27.8075 22.9223 27.8541 22.9888 27.8854C23.0948 27.935 23.1565 27.9655 23.174 27.9768C23.7931 28.3928 24.4432 28.7543 25.1245 29.0615C25.3145 29.1468 25.4734 29.2722 25.6012 29.4375C25.7904 29.6847 26.036 29.8191 26.3381 29.8409C26.3836 29.8443 26.3875 29.8322 26.3499 29.8043C25.4419 29.1377 24.4914 28.5359 23.4984 27.999C23.1351 27.8014 22.8693 27.6195 22.7012 27.4533C22.6513 27.4037 22.6101 27.3876 22.5777 27.405C22.5692 27.4093 22.562 27.4158 22.5569 27.424C22.5517 27.4322 22.5488 27.4417 22.5483 27.4519C22.5477 27.462 22.5497 27.4724 22.5539 27.4822C22.5581 27.492 22.5645 27.5009 22.5725 27.5081L22.7327 27.6583C22.7914 27.7122 22.822 27.7414 22.8247 27.7457ZM48.9986 40.6128C49.0143 40.7608 49.0678 40.8939 49.1588 41.0123C49.1722 41.0296 49.1892 41.043 49.2078 41.0511C49.2264 41.0592 49.2458 41.0616 49.2639 41.058C49.3374 41.0441 49.3488 40.991 49.298 40.8987C49.0476 40.4471 48.8016 39.9928 48.5599 39.5359C48.3725 39.1826 48.2683 38.8863 48.2473 38.6469C48.2237 38.378 48.232 37.9873 48.2723 37.4747C48.295 37.1893 48.2955 36.9426 48.2736 36.7346C48.2464 36.4822 48.2096 36.2368 48.1632 35.9983C48.1527 35.9409 48.1405 35.9405 48.1265 35.997C47.9881 36.5409 47.9527 37.1118 48.0201 37.7097C48.0253 37.7532 48.0275 37.7971 48.0266 37.8415C48.0231 38.2758 48.0792 38.6644 48.1948 39.0072C48.2385 39.1369 48.3152 39.3336 48.4246 39.5973C48.506 39.7931 48.601 39.9819 48.7096 40.1638C48.721 40.1838 48.7477 40.2478 48.7897 40.3557C48.8178 40.4288 48.8655 40.484 48.9329 40.5215C48.9511 40.5315 48.9666 40.545 48.978 40.561C48.9895 40.5769 48.9965 40.5947 48.9986 40.6128Z" fill="#FECC06"/>
<path d="M14.961 27.0619L14.9557 27.0188C14.9531 26.9927 14.9386 26.9975 14.9124 27.0332C14.8379 27.1341 14.7294 27.1463 14.5866 27.0697C14.4816 27.014 14.1786 26.9135 13.6777 26.7682C13.4177 26.6933 13.12 26.5802 12.7846 26.4288C12.4064 26.2582 11.9178 26.0641 11.3188 25.8466C11.0351 25.743 10.73 25.579 10.4034 25.3544C10.0978 25.1447 9.80577 24.9646 9.52733 24.814C8.28921 24.1483 7.24547 23.211 6.39612 22.0022C6.36651 21.9601 6.34647 21.9122 6.33739 21.8617C6.32832 21.8112 6.33043 21.7593 6.34359 21.7098C6.37336 21.6019 6.35453 21.5275 6.28711 21.4866C6.46574 21.2447 6.66538 21.0824 6.88603 20.9997C7.61017 20.7308 8.35006 20.6429 9.10572 20.736C9.60132 20.7969 10.3053 20.984 11.2177 21.2973C12.0644 21.588 12.9738 21.9839 13.9457 22.4852C14.6514 22.849 15.1081 23.3559 15.3156 24.006C15.3821 24.2148 15.4001 24.5146 15.3694 24.9054C15.3484 25.1752 15.3335 25.4832 15.3248 25.8296C15.3143 26.2543 15.193 26.665 14.961 27.0619Z" fill="#FDEB0B"/>
<path d="M6.26843 21.4879C6.33586 21.5288 6.35468 21.6032 6.32491 21.7111C6.31176 21.7606 6.30965 21.8124 6.31872 21.8629C6.32779 21.9134 6.34783 21.9614 6.37745 22.0035C7.2268 23.2123 8.27053 24.1496 9.50865 24.8153C9.7871 24.9659 10.0791 25.146 10.3847 25.3557C10.7113 25.5803 11.0165 25.7443 11.3002 25.8479C11.8991 26.0654 12.3877 26.2595 12.7659 26.4301C13.1013 26.5815 13.399 26.6946 13.6591 26.7695C14.1599 26.9148 14.4629 27.0153 14.568 27.071C14.7107 27.1476 14.8193 27.1354 14.8937 27.0344C14.92 26.9988 14.9344 26.994 14.937 27.0201L14.9423 27.0632C14.6586 27.4034 14.2711 27.5148 13.7799 27.3973C13.2405 27.2685 12.8259 27.1419 12.5361 27.0175C11.1509 26.4213 9.77571 25.6507 8.41063 24.7056C7.91328 24.361 7.48729 23.9812 7.13267 23.5661C6.77191 23.144 6.54776 22.862 6.46019 22.7202C6.26581 22.4043 6.16905 22.0462 6.16993 21.6458C6.16993 21.6049 6.20276 21.5523 6.26843 21.4879Z" fill="#BDBF67"/>
<path d="M62.5645 22.7862C62.6135 23.0195 62.5689 23.2183 62.4305 23.3828C62.4043 23.415 62.3846 23.4524 62.3714 23.4951C62.3171 23.6726 62.1937 23.7635 62.001 23.7679C61.9803 23.7679 61.9599 23.7725 61.9417 23.7813C61.9234 23.7902 61.9078 23.803 61.896 23.8188C61.5913 24.2374 61.2257 24.5946 60.7993 24.8905C60.0138 25.4362 59.1627 25.8182 58.246 26.0366C57.6777 26.1715 57.1996 26.2673 56.8117 26.3238C56.324 26.3961 55.8319 26.4026 55.3354 26.3434C55.3083 26.3399 55.1612 26.2982 54.8941 26.2181C54.7417 26.172 54.5824 26.1685 54.416 26.2076C54.6157 25.6141 54.87 25.1725 55.1791 24.8827C56.1169 24.0063 57.176 23.3149 58.3563 22.8084C58.9324 22.5613 59.534 22.4077 60.1609 22.3476C60.674 22.2989 61.1889 22.2728 61.7055 22.2693C62.1048 22.2667 62.3911 22.439 62.5645 22.7862ZM55.1148 26.1933C55.4913 26.2203 55.8687 26.2251 56.2469 26.2076C56.2933 26.2059 56.2933 26.2033 56.2469 26.1998C55.8687 26.1728 55.4904 26.1681 55.1121 26.1855C55.0666 26.1872 55.0675 26.1898 55.1148 26.1933Z" fill="#FBEA18"/>
<path d="M62.5629 22.7839C62.6942 22.9205 62.7582 23.0728 62.7546 23.2408C62.7485 23.5271 62.6706 23.7869 62.5209 24.0201C62.478 24.088 62.3125 24.2942 62.0244 24.6389C61.323 25.476 60.4605 26.0843 59.4369 26.4638C59.1532 26.5691 58.796 26.6526 58.3652 26.7144C58.0009 26.7666 57.6362 26.8171 57.2711 26.8658C56.5776 26.9572 55.7348 26.9346 54.7428 26.7979C54.2813 26.7344 54.1719 26.5369 54.4144 26.2053C54.5808 26.1661 54.7401 26.1696 54.8925 26.2157C55.1596 26.2958 55.3067 26.3376 55.3338 26.3411C55.8303 26.4002 56.3224 26.3937 56.8101 26.3215C57.198 26.2649 57.6761 26.1692 58.2444 26.0343C59.1611 25.8159 60.0122 25.4338 60.7976 24.8882C61.2241 24.5923 61.5896 24.2351 61.8944 23.8165C61.9062 23.8007 61.9218 23.7878 61.9401 23.779C61.9583 23.7702 61.9786 23.7656 61.9994 23.7656C62.1921 23.7612 62.3155 23.6703 62.3698 23.4927C62.383 23.4501 62.4027 23.4127 62.4289 23.3805C62.5673 23.216 62.6119 23.0171 62.5629 22.7839Z" fill="#C4BD78"/>
<path d="M55.1116 26.1874C55.4899 26.17 55.8682 26.1747 56.2464 26.2017C56.2928 26.2052 56.2928 26.2078 56.2464 26.2096C55.8682 26.227 55.4908 26.2222 55.1143 26.1952C55.067 26.1917 55.0661 26.1891 55.1116 26.1874Z" fill="#F4E63C"/>
<path d="M22.7275 27.6577L22.5673 27.5076C22.5593 27.5004 22.5529 27.4915 22.5487 27.4817C22.5445 27.4719 22.5425 27.4614 22.5431 27.4513C22.5436 27.4411 22.5465 27.4316 22.5517 27.4234C22.5568 27.4153 22.5639 27.4088 22.5725 27.4045C22.6049 27.3871 22.6461 27.4031 22.696 27.4528C22.8641 27.619 23.1299 27.8009 23.4932 27.9984C24.4862 28.5353 25.4367 29.1371 26.3447 29.8037C26.3823 29.8316 26.3784 29.8438 26.3329 29.8403C26.0308 29.8185 25.7852 29.6841 25.596 29.4369C25.4682 29.2716 25.3093 29.1463 25.1193 29.061C24.438 28.7538 23.7879 28.3922 23.1688 27.9762C23.1513 27.9649 23.0896 27.9344 22.9836 27.8848C22.9171 27.8535 22.8624 27.8069 22.8194 27.7452C22.8168 27.7408 22.7862 27.7117 22.7275 27.6577Z" fill="#C4BD78"/>
<path d="M64.682 31.3135C64.5585 31.2735 64.5813 31.2604 64.7503 31.2744C64.773 31.2761 64.7958 31.2822 64.8186 31.2926C64.9149 31.3362 65.0165 31.361 65.1233 31.367C65.3247 31.3775 65.4122 31.5407 65.386 31.8566C65.372 32.0184 65.4192 32.1868 65.5278 32.3617C65.542 32.3845 65.5508 32.4103 65.5535 32.4369C65.5561 32.4636 65.5527 32.4906 65.5433 32.5159C65.534 32.5411 65.519 32.564 65.4995 32.5827C65.4799 32.6015 65.4564 32.6156 65.4306 32.6241C65.3798 32.6407 65.3374 32.6877 65.3032 32.7651C65.2847 32.807 65.2546 32.8392 65.2192 32.8552C65.0152 32.9492 64.5918 33.1302 63.9491 33.3982C63.2302 33.6993 62.5814 33.9008 62.0026 34.0026C61.2671 34.1332 60.5561 34.0922 59.8696 33.8799C59.5859 33.792 59.3499 33.6275 59.1617 33.3865C59.1363 33.3528 59.1241 33.3105 59.1275 33.2677C59.1564 32.9074 59.2343 32.558 59.3613 32.2195C59.3767 32.1796 59.4042 32.1454 59.4401 32.1216C60.0863 31.6812 60.7986 31.3971 61.577 31.2691C61.7828 31.2352 62.3191 31.2461 63.186 31.3018C63.2858 31.3079 63.4106 31.2852 63.5603 31.2339C63.5892 31.2243 63.6304 31.2222 63.6838 31.2274L64.6794 31.3279C64.7223 31.3322 64.7231 31.3275 64.682 31.3135Z" fill="#F4E63C"/>
<path d="M7.97083 33.7519C8.00411 33.4438 8.12407 33.1889 8.33071 32.987C8.49533 32.826 8.73612 32.7137 9.05309 32.6502C9.30264 32.5997 9.5557 32.5723 9.81225 32.5679C10.1529 32.561 10.4059 32.5501 10.5714 32.5353C11.8139 32.4239 13.0363 32.551 14.2385 32.9165C14.7358 33.0679 15.1688 33.3272 15.5375 33.6945C15.7607 33.9173 15.8614 34.184 15.8395 34.4947C15.8361 34.537 15.8185 34.577 15.7896 34.6082C15.5471 34.878 15.1811 35.1147 14.6916 35.3184C13.7451 35.7135 12.764 35.9854 11.7482 36.1342C11.1414 36.2239 10.5364 36.3266 9.93309 36.4423C9.5233 36.5215 9.14985 36.4823 8.81274 36.3248C8.50452 36.1821 8.25935 35.931 8.07722 35.5716C7.76112 34.945 7.70509 34.2636 7.9091 33.5274C7.94325 33.4047 7.96033 33.4791 7.96033 33.7506C7.9612 33.815 7.96471 33.8154 7.97083 33.7519Z" fill="#FBEA18"/>
<path d="M48.9245 40.5213C48.8571 40.4838 48.8093 40.4286 48.7813 40.3555C48.7393 40.2476 48.7126 40.1836 48.7012 40.1636C48.5926 39.9817 48.4976 39.7929 48.4162 39.5971C48.3067 39.3334 48.2301 39.1367 48.1863 39.007C48.0708 38.6641 48.0147 38.2756 48.0182 37.8413C48.0191 37.7969 48.0169 37.753 48.0117 37.7095C47.9442 37.1116 47.9797 36.5407 48.118 35.9968C48.132 35.9402 48.1443 35.9407 48.1548 35.9981C48.2012 36.2366 48.238 36.482 48.2651 36.7344C48.287 36.9423 48.2866 37.1891 48.2638 37.4745C48.2236 37.9871 48.2152 38.3778 48.2389 38.6467C48.2599 38.8861 48.3641 39.1824 48.5515 39.5357C48.7931 39.9926 49.0392 40.4469 49.2896 40.8985C49.3404 40.9908 49.329 41.0438 49.2555 41.0578C49.2374 41.0614 49.2179 41.059 49.1994 41.0509C49.1808 41.0428 49.1638 41.0294 49.1504 41.0121C49.0593 40.8937 49.0059 40.7606 48.9902 40.6126C48.9881 40.5944 48.981 40.5766 48.9696 40.5607C48.9582 40.5448 48.9427 40.5313 48.9245 40.5213Z" fill="#C4BD78"/>
<path d="M68.8383 41.133L69.0169 41.381C69.0476 41.4237 69.0664 41.4611 69.0734 41.4933C69.1242 41.7448 69.1605 41.998 69.1824 42.253C69.1991 42.4445 69.1662 42.5981 69.0839 42.7138C68.9736 42.867 68.8287 42.961 68.6492 42.9958C68.3602 43.0524 68.013 43.0685 67.6076 43.0441C67.4439 43.0336 67.2591 43.0428 67.0534 43.0715C66.8651 43.0985 66.6769 43.1076 66.4886 43.0989C65.958 43.0745 65.6848 43.0624 65.669 43.0624C64.4046 43.0563 63.2353 42.7164 62.1609 42.0429C62.1266 42.0216 62.085 42.0107 62.0414 42.0115C61.7296 42.0168 61.4705 41.9119 61.2638 41.6969C61.2325 41.6641 61.2143 41.6242 61.2126 41.5847L61.1824 40.8341C61.1517 40.3511 61.2279 39.9669 61.4109 39.6814C61.5151 39.5187 61.664 39.4478 61.8575 39.4687C64.3416 39.7393 66.6685 40.2941 68.8383 41.133Z" fill="#FDEB12"/>
<path d="M61.1696 40.8354L61.1998 41.586C61.2015 41.6255 61.2197 41.6655 61.251 41.6983C61.4577 41.9133 61.7168 42.0181 62.0286 42.0129C62.0722 42.0121 62.1138 42.023 62.1481 42.0442C63.2225 42.7178 64.3918 43.0576 65.6562 43.0637C65.672 43.0637 65.9452 43.0759 66.4758 43.1003C66.6641 43.109 66.8523 43.0999 67.0406 43.0729C67.2464 43.0442 67.4311 43.035 67.5949 43.0455C68.0003 43.0698 68.3474 43.0537 68.6364 42.9972C68.8159 42.9623 68.9608 42.8684 69.0711 42.7152C69.1534 42.5995 69.1863 42.4459 69.1696 42.2544C69.1478 41.9994 69.1114 41.7462 69.0606 41.4947C69.0536 41.4625 69.0348 41.425 69.0042 41.3824L68.8255 41.1344C69.0847 41.2188 69.2414 41.4011 69.2957 41.6813C69.4218 42.3314 69.4512 42.8653 69.3837 43.283C69.3321 43.6059 69.1241 43.79 68.7599 43.8352C67.471 43.9953 66.1886 43.9914 64.9128 43.8235C64.2307 43.7338 63.6305 43.5963 63.1121 43.411C62.5176 43.1995 61.962 42.9258 61.4454 42.5899C61.2239 42.4454 61.1179 42.2418 61.1276 41.979C61.1346 41.8075 61.1381 41.7192 61.1381 41.714C61.1311 41.4207 61.1416 41.1279 61.1696 40.8354Z" fill="#B9B885"/>
<path d="M14.2828 41.9939C14.0971 41.973 14.0774 41.9534 14.2237 41.9351C14.6597 41.8794 15.098 41.8525 15.5384 41.8542C15.9132 41.8551 16.1172 41.9974 16.1505 42.2811C16.1636 42.3951 16.164 42.6048 16.1518 42.9103C16.1404 43.187 16.0371 43.4002 15.8418 43.5499C14.4181 44.6421 12.7505 45.4218 10.839 45.8891C10.1901 46.0484 9.68842 46.155 9.33379 46.209C8.79091 46.2908 8.27605 46.3047 7.78921 46.2507C7.62809 46.2325 7.49456 46.1598 7.38861 46.0327C7.2958 45.9222 7.26209 45.7891 7.28748 45.6333C7.33126 45.3635 7.46829 45.1477 7.69858 44.9858C7.88771 44.8535 8.04927 44.7126 8.18323 44.5629C8.34085 44.3879 8.46299 44.2639 8.54968 44.1908C8.63987 44.116 8.72874 44.0394 8.81631 43.9611C8.91087 43.8775 9.005 43.8088 9.09869 43.7548C9.61443 43.4616 10.2698 43.1596 11.0649 42.8489C11.332 42.7436 11.5622 42.6657 11.7557 42.6152C12.134 42.516 12.3275 42.4647 12.3363 42.4612C12.9746 42.2628 13.6239 42.1122 14.2841 42.0095C14.3252 42.0035 14.3248 41.9982 14.2828 41.9939Z" fill="#FAE825"/>
<path d="M44.8 43.2758C44.8928 43.5291 44.9274 43.7919 44.9037 44.0643C44.8853 44.2836 44.895 44.5011 44.9326 44.717C44.9668 44.9128 45.0675 45.0168 45.2347 45.0289C45.3153 45.035 45.4418 45.0215 45.6143 44.9885C46.0293 44.9102 46.2303 44.6347 46.2171 44.1622C46.2933 44.3841 46.2894 44.5803 46.2053 44.7509C46.1379 44.8867 45.9947 44.9876 45.7758 45.0537C45.5744 45.1147 45.3713 45.1691 45.1664 45.2169C45.1463 45.2214 45.1256 45.2215 45.1056 45.2173C45.0856 45.213 45.0669 45.2044 45.0508 45.1921C44.8547 45.0459 44.7601 44.8984 44.7671 44.7496C44.7873 44.3092 44.7763 43.9394 44.7343 43.64C44.7133 43.4895 44.7352 43.3681 44.8 43.2758Z" fill="#F3E57B"/>
<path d="M60.5548 46.4119C60.7816 46.6382 60.9352 46.78 61.0158 46.8374C61.5998 47.2526 62.0915 47.7569 62.4908 48.3504C62.512 48.3825 62.5467 48.4082 62.5893 48.4235C62.7451 48.4783 62.869 48.5888 62.961 48.755C63.39 49.5278 63.6435 50.3546 63.7214 51.2353C63.7459 51.5181 63.5875 51.6247 63.246 51.5551C63.0638 51.5185 62.8848 51.4702 62.7088 51.4102C61.5197 51.0073 60.3578 50.3702 59.223 49.4991C58.0409 48.5906 57.0764 47.4936 56.3295 46.2082C56.1447 45.8897 56.1224 45.5908 56.2625 45.3115C56.3124 45.2122 56.4013 45.16 56.5291 45.1548C56.6631 45.1487 56.7577 45.1378 56.8128 45.1222C57.5212 44.9264 58.1897 45.0199 58.8184 45.4028C58.9874 45.5064 59.1713 45.5673 59.3701 45.5856C59.5504 45.6021 59.765 45.7065 60.0136 45.8989C60.0425 45.9215 60.0719 45.9402 60.1016 45.955C60.4922 46.1534 60.511 46.1865 60.1581 46.0542C60.145 46.049 60.1318 46.0425 60.1187 46.0346C60.0163 45.9711 60.0163 45.9907 60.1187 46.0934C60.131 46.1056 60.145 46.1151 60.1607 46.1221C60.2938 46.1874 60.4252 46.2552 60.5548 46.3257C60.5942 46.3475 60.5972 46.3653 60.564 46.3793C60.5607 46.3804 60.5578 46.3824 60.5554 46.3849C60.553 46.3874 60.5513 46.3904 60.5504 46.3937C60.5495 46.3969 60.5494 46.4003 60.5502 46.4035C60.5509 46.4066 60.5525 46.4095 60.5548 46.4119ZM59.8127 49.6727C60.2155 49.9599 60.6695 50.1557 61.1747 50.2601C61.2167 50.2688 61.2185 50.2623 61.18 50.2406C60.2089 49.7132 59.3438 49.0527 58.5846 48.259C58.4673 48.1363 58.3058 47.9818 58.1 47.7956C57.9327 47.645 57.776 47.4836 57.6298 47.3113C57.6149 47.2939 57.5991 47.28 57.5825 47.2695C57.4547 47.1929 57.4406 47.2221 57.5405 47.357C57.8995 47.8426 58.2952 48.2934 58.7278 48.7094C59.2322 49.195 59.5938 49.5161 59.8127 49.6727ZM61.1497 50.3842C61.3581 50.5695 61.5876 50.6966 61.838 50.7653C62.2154 50.8698 62.4067 50.9228 62.4119 50.9246C62.7412 51.0482 63.0717 51.1687 63.4036 51.2862C63.4657 51.3079 63.4933 51.2936 63.4863 51.2431C63.4838 51.2268 63.4765 51.2102 63.465 51.1946C63.4534 51.1791 63.4378 51.1649 63.4193 51.153C62.9859 50.8789 62.5192 50.6844 62.0192 50.5695C61.9282 50.5486 61.792 50.499 61.6108 50.4207C61.4698 50.3589 61.3231 50.3285 61.1708 50.3293C61.1165 50.3293 61.1095 50.3476 61.1497 50.3842Z" fill="#FAEA1C"/>
<path d="M16.4737 53.3593C15.9352 53.6491 15.3398 53.8571 14.6875 53.9833C14.4861 54.0224 14.3031 54.0412 14.1384 54.0394C13.8749 54.0368 13.6936 54.0268 13.5947 54.0094C13.3425 53.9659 13.1814 53.8049 13.1113 53.5264C13.0404 53.2436 13.0614 52.9512 13.1744 52.6492C13.4931 51.7955 13.9791 51.0471 14.6323 50.4039C15.162 49.8827 15.708 49.3792 16.2701 48.8936C16.8078 48.4298 17.3042 48.0965 17.7596 47.8937C18.5879 47.5238 19.5121 47.3019 20.5322 47.2279C21.09 47.187 21.3128 47.3781 21.2007 47.801C21.1911 47.8367 21.1188 47.9859 20.984 48.2488C20.9323 48.3488 20.8921 48.4541 20.8632 48.5647C20.8281 48.6952 20.7874 48.7983 20.741 48.874C20.5878 49.122 20.3347 49.5115 19.9819 50.0423C19.3917 50.9317 18.7324 51.681 18.0038 52.2902C17.4531 52.7506 16.943 53.1069 16.4737 53.3593Z" fill="#FDEB12"/>
<path d="M58.7276 48.7078C58.295 48.2918 57.8993 47.841 57.5403 47.3554C57.4404 47.2205 57.4544 47.1913 57.5823 47.2679C57.5989 47.2784 57.6147 47.2923 57.6296 47.3097C57.7758 47.482 57.9325 47.6434 58.0998 47.794C58.3055 47.9802 58.4671 48.1347 58.5844 48.2574C59.3436 49.0511 60.2087 49.7116 61.1798 50.239C61.2183 50.2607 61.2165 50.2672 61.1745 50.2585C60.6693 50.1541 60.2153 49.9583 59.8125 49.6711C59.5936 49.5145 59.2319 49.1934 58.7276 48.7078Z" fill="#F4E63C"/>
<path d="M56.1287 57.6105C56.2215 57.634 56.3073 57.6728 56.3861 57.7267C56.4255 57.7537 56.4592 57.7694 56.4873 57.7737C56.5582 57.785 56.5932 57.7633 56.5923 57.7084C56.5914 57.6754 56.5739 57.6393 56.5398 57.6001C56.3918 57.4304 56.2438 57.2611 56.0959 57.0923C56.0127 56.9983 55.915 56.8395 55.803 56.6158C55.6996 56.4079 55.553 56.2303 55.363 56.0832C55.3025 56.0354 55.2649 55.9775 55.25 55.9096C55.2386 55.8583 55.2211 55.82 55.1975 55.7948C54.349 54.8618 53.6113 53.7875 52.9844 52.5718C52.6648 51.9504 52.4345 51.3569 52.2935 50.7912C52.2899 50.7771 52.2804 50.7636 52.2663 50.7523C52.2521 50.741 52.2338 50.7323 52.2134 50.7273C52.1608 50.7151 52.1306 50.669 52.1227 50.5889C52.1017 50.3774 52.089 50.4318 52.0847 50.7521C51.92 50.1377 51.9901 49.6181 52.2948 49.1935C52.5085 48.8967 52.8057 48.8558 53.1866 49.0707C54.5176 49.8183 55.4864 50.8613 56.0932 52.1997C56.1948 52.4251 56.3879 52.9408 56.6724 53.7466C56.8949 54.3767 57.0638 54.9014 57.1794 55.3209C57.3747 56.031 57.3865 56.7742 57.2149 57.5505C57.2123 57.5662 57.1983 57.6697 57.1729 57.8612C57.137 58.1431 56.9557 58.2184 56.6291 58.087C56.524 58.0444 56.3572 57.8855 56.1287 57.6105Z" fill="#FBEA18"/>
<path d="M61.1449 50.3836C61.1046 50.347 61.1116 50.3288 61.1659 50.3288C61.3182 50.3279 61.4649 50.3583 61.6059 50.4201C61.7871 50.4985 61.9233 50.5481 62.0144 50.5689C62.5143 50.6838 62.981 50.8783 63.4145 51.1524C63.4329 51.1643 63.4485 51.1785 63.4601 51.1941C63.4717 51.2096 63.479 51.2262 63.4815 51.2425C63.4885 51.293 63.4609 51.3074 63.3987 51.2856C63.0669 51.1681 62.7363 51.0476 62.4071 50.924C62.4018 50.9223 62.2105 50.8692 61.8331 50.7647C61.5827 50.696 61.3533 50.5689 61.1449 50.3836Z" fill="#BDBF67"/>
<path d="M56.1143 57.6117C55.3018 56.5265 54.4857 55.4434 53.6661 54.3626C53.1294 53.6542 52.6894 52.8509 52.3461 51.9528C52.1859 51.5334 52.094 51.1335 52.0703 50.7532C52.0747 50.4329 52.0874 50.3786 52.1084 50.59C52.1163 50.6701 52.1465 50.7162 52.199 50.7284C52.2194 50.7334 52.2378 50.7421 52.2519 50.7534C52.2661 50.7647 52.2755 50.7782 52.2791 50.7924C52.4201 51.358 52.6504 51.9515 52.97 52.5729C53.5969 53.7886 54.3347 54.863 55.1831 55.7959C55.2068 55.8211 55.2243 55.8594 55.2357 55.9108C55.2505 55.9786 55.2882 56.0365 55.3486 56.0844C55.5386 56.2314 55.6853 56.409 55.7886 56.617C55.9007 56.8406 55.9983 56.9994 56.0815 57.0934C56.2295 57.2623 56.3775 57.4315 56.5254 57.6012C56.5596 57.6404 56.5771 57.6765 56.578 57.7096C56.5789 57.7644 56.5438 57.7861 56.4729 57.7748C56.4449 57.7705 56.4112 57.7548 56.3718 57.7278C56.293 57.6739 56.2072 57.6352 56.1143 57.6117Z" fill="#B3B940"/>
<path d="M24.1439 59.1389C24.1241 59.1322 24.1064 59.1203 24.0927 59.1044C24.0791 59.0886 24.07 59.0694 24.0664 59.0488C23.9832 58.5354 24.0476 58.0337 24.2595 57.5437C24.2661 57.529 24.2777 57.5151 24.2936 57.5029C24.3095 57.4907 24.3293 57.4806 24.3514 57.4732C24.3996 57.4576 24.4298 57.4258 24.4421 57.3779C24.7433 56.2135 25.1373 55.0278 25.6241 53.8208C25.9578 52.9949 26.4061 52.2574 26.9691 51.6082C27.1004 51.4567 27.2327 51.3466 27.3657 51.2779C27.5505 51.1822 27.7226 51.1404 27.8819 51.1526C28.1148 51.1709 28.2554 51.3214 28.3035 51.6042C28.4366 52.3996 28.3324 53.1624 27.9909 53.8926C27.6258 54.6732 27.2944 55.4677 26.9967 56.2762C26.9949 56.2814 26.9336 56.4685 26.8128 56.8375C26.5361 57.6834 26.0475 58.3761 25.347 58.9157C25.1439 59.0714 24.9587 59.1646 24.7914 59.195C24.583 59.2324 24.3672 59.2137 24.1439 59.1389Z" fill="#F7E72D"/>
<path d="M46.6206 58.5975C46.2826 58.2677 46.0598 57.8713 45.9521 57.4083C45.6833 56.2631 45.4403 55.1122 45.2232 53.9556C45.0708 53.1428 45.0353 52.3461 45.1168 51.5654C45.1197 51.5369 45.128 51.5091 45.1411 51.4838C45.1542 51.4585 45.1719 51.4361 45.1931 51.4179C45.2143 51.3997 45.2387 51.3861 45.2648 51.3778C45.291 51.3695 45.3183 51.3667 45.3453 51.3696L46.5523 51.5002C46.5944 51.505 46.6355 51.5212 46.6718 51.5473C46.7082 51.5735 46.7389 51.6088 46.7612 51.6503C46.8549 51.8235 46.9157 52.0062 46.9437 52.1985C46.9919 52.5266 47.0221 52.7133 47.0344 52.7586C47.1893 53.3616 47.3435 53.9647 47.4967 54.5678C47.8329 55.8889 48.0159 56.8361 48.0457 57.4096C48.0737 57.9361 47.9621 58.4043 47.7108 58.8142C47.6771 58.8689 47.6276 58.9123 47.5689 58.9388C47.5101 58.9654 47.4447 58.9738 47.3811 58.963C47.0676 58.9091 46.8141 58.7872 46.6206 58.5975Z" fill="#F4E63C"/>
<path d="M39.1982 54.743C39.1711 55.4705 39.1045 56.1946 38.9986 56.9152C38.8226 58.1109 38.619 59.3023 38.3878 60.4893C38.2968 60.9584 38.1234 61.5092 37.8677 62.1419C37.7565 62.4178 37.5705 62.5679 37.3095 62.5923C36.9742 62.6236 36.8025 62.4735 36.7947 62.1419C36.7842 61.6633 36.7741 61.1846 36.7645 60.706C36.7557 60.2439 36.7592 59.7648 36.775 59.2688C36.8301 57.4961 36.8752 55.7234 36.9102 53.9506C36.9102 53.9428 36.9032 53.747 36.8892 53.3632C36.8656 52.7071 37.1283 52.4438 37.6773 52.5735C37.9943 52.6492 38.2679 52.8337 38.4982 53.127C38.6969 53.3793 38.8725 53.673 39.0249 54.0081C39.1483 54.277 39.2061 54.522 39.1982 54.743Z" fill="#F7E72D"/>
<path d="M95.4658 14.798C95.4883 15.0002 95.5108 15.5845 95.5108 16.5058C95.5108 16.6407 95.5108 16.8878 95.4883 17.2699C95.4658 17.6519 95.4658 18.2586 95.4883 19.1125C95.4883 19.9664 95.4658 20.5732 95.4434 20.9552C95.3759 22.1012 95.331 23.1349 95.331 24.0338L95.3535 24.4158V25.4495C95.3535 26.3708 95.331 26.8652 95.3085 26.8876C95.3085 26.9101 95.2861 26.9326 95.2636 26.9326H92.5221C92.4996 26.9326 92.4771 26.9101 92.4771 26.8876C92.4996 26.8202 92.4996 26.4832 92.5221 25.9214C92.5221 25.809 92.5221 25.6967 92.5445 25.5618L92.567 25.1349C92.567 25 92.567 24.8877 92.5895 24.7753C92.6344 23.7192 92.6344 22.8428 92.612 22.1686C92.612 22.0787 92.612 21.9664 92.5895 21.8316L92.567 21.4271C92.5445 21.2922 92.5445 21.1799 92.5445 21.1125C92.5445 20.8203 92.5445 20.3934 92.567 19.8091V18.5283V17.517C92.3648 17.517 91.8929 17.5395 91.1288 17.562L90.612 17.5845L90.1176 17.6069C89.6907 17.6294 89.3761 17.6294 89.1513 17.6519C89.0839 19.3372 88.9716 20.8428 88.7693 22.1911C88.5671 23.5619 88.23 24.5956 87.7581 25.2922C87.466 25.7191 87.1289 26.0787 86.702 26.3259C86.275 26.618 85.6907 26.8427 84.9941 27L84.5447 27.0674H84.4998H84.4099L84.275 27.0899H84.1627C83.9155 27.0899 83.7807 27.0899 83.7582 27.0674C83.7357 27.0449 83.6683 27 83.6009 26.9101C83.4885 26.7079 83.3762 26.4382 83.3088 26.1461C83.1515 25.5394 83.1515 25 83.3537 24.5281C83.6009 24.5057 83.8256 24.4607 84.0728 24.3933L84.275 24.3259L84.3649 24.281H84.4099C84.8593 24.1012 85.2413 23.7866 85.5559 23.3371C85.9155 22.8652 86.1177 22.1686 86.1851 21.2473C86.1851 21.0001 86.1851 20.663 86.2076 20.2136L86.275 19.2473C86.2975 18.7305 86.3424 18.0788 86.4098 17.2699C86.4997 16.1687 86.5447 15.562 86.5222 15.4497L86.5447 15.4047C87.039 15.2025 87.6233 15.1126 88.275 15.0901L89.2412 15.0452C90.4322 14.9778 91.2637 14.9553 91.758 14.9328C92.9266 14.8654 93.8254 14.798 94.4771 14.7755C94.8142 14.753 95.1288 14.7306 95.4434 14.753C95.4658 14.753 95.4658 14.7755 95.4658 14.798ZM106.772 14.8654C106.795 14.8654 106.795 14.8879 106.795 14.9103C106.817 15.6744 106.817 16.6407 106.795 17.7867C106.772 17.8991 106.772 18.371 106.795 19.2024V20.6406V21.6293L106.727 22.5282C106.705 22.8877 106.637 23.2248 106.57 23.5169C106.48 23.8315 106.368 24.1237 106.233 24.4158C105.941 25.045 105.446 25.6292 104.75 26.1461C104.143 26.5955 103.491 26.9101 102.772 27.0899C102.166 27.2472 101.604 27.3146 101.042 27.2921C100.705 27.2697 100.413 27.2697 100.211 27.2472C99.1095 27.1573 97.941 26.7079 96.75 25.9214L96.7276 25.8764C96.9748 24.9326 97.4691 24.1012 98.2107 23.3596C98.2332 23.3371 98.2332 23.3371 98.2556 23.3596C98.8174 24.0113 99.4916 24.4383 100.233 24.6405C100.975 24.8427 101.694 24.7978 102.39 24.5057C102.638 24.4158 102.885 24.281 103.087 24.1012C103.222 23.9888 103.334 23.854 103.447 23.6967C103.829 23.2697 104.053 22.7079 104.121 21.9889L104.143 21.7641C103.716 21.9889 103.289 22.1462 102.84 22.2585C102.121 22.4608 101.424 22.5057 100.75 22.4383L100.345 22.4158C99.3792 22.281 98.5927 21.9664 97.941 21.472C97.1995 20.9102 96.7051 19.9889 96.4354 18.708L96.3456 18.2586L96.3231 16.8878C96.3456 16.7755 96.3456 16.6631 96.3456 16.5957C96.368 15.944 96.368 15.5395 96.3231 15.3822L96.3456 15.3373C96.9972 15.0002 97.8511 14.8429 98.9073 14.8429C98.9298 14.8429 98.9522 14.8654 98.9522 14.8879L99.0197 15.5845C99.0421 15.8766 99.0421 16.0789 99.0646 16.1687C99.0646 16.2137 99.0646 16.4384 99.0421 16.8429C99.0646 17.4272 99.0871 17.7418 99.0871 17.7867C99.2893 18.5283 99.6489 19.0676 100.166 19.3822C100.772 19.7192 101.357 19.8541 101.941 19.7417L102.031 19.7192L102.256 19.6518L102.593 19.4945L102.93 19.3372C103.649 18.9327 104.076 18.2137 104.188 17.1575L104.256 16.3036V16.2586C104.233 15.8766 104.233 15.607 104.233 15.4047L104.256 15.3598C104.93 15.0227 105.761 14.8654 106.772 14.8654ZM118.523 14.8654V14.9103C118.546 15.4721 118.478 16.4159 118.321 17.7867C118.231 18.4833 118.186 19.2473 118.164 20.0788V21.0001C118.164 21.5619 118.164 22.1462 118.186 22.7529C118.209 24.4158 118.209 25.2922 118.231 25.3821C118.254 25.5394 118.254 25.809 118.231 26.2135V27C118.231 27.0225 118.231 27.0449 118.209 27.0449H115.467C115.445 27.0449 115.422 27.0225 115.422 27C115.467 26.3483 115.49 25.7416 115.467 25.2248C115.445 23.7866 115.445 22.9102 115.467 22.5731V22.1686V21.8091L115.4 21.8316C115.018 22.0563 114.591 22.2136 114.141 22.3259C113.422 22.5282 112.726 22.5731 112.052 22.5057L111.647 22.4608C110.681 22.3259 109.894 22.0113 109.243 21.517C108.501 20.9552 108.007 20.0338 107.737 18.753L107.647 18.3035L107.625 16.9553C107.647 16.8429 107.647 16.7305 107.647 16.6631C107.67 16.0114 107.67 15.607 107.625 15.4497L107.647 15.4047C108.299 15.0676 109.153 14.9103 110.209 14.9103C110.231 14.9103 110.254 14.9328 110.254 14.9553L110.321 15.6519C110.344 15.944 110.344 16.1463 110.366 16.2362C110.366 16.2811 110.366 16.5058 110.344 16.9103C110.366 17.4946 110.389 17.8092 110.389 17.8316C110.591 18.5732 110.95 19.1125 111.467 19.4271C112.074 19.7642 112.658 19.899 113.243 19.7867H113.332L113.557 19.7192L113.894 19.5619L114.231 19.4046C114.95 19.0002 115.377 18.2811 115.49 17.2249C115.512 17.135 115.512 17.0227 115.512 16.8878C115.535 16.2586 115.557 15.7643 115.557 15.4047V15.3598C115.782 15.2474 116.186 15.1575 116.771 15.0452C117.4 14.9328 117.984 14.8654 118.501 14.8654H118.523ZM129.657 14.8654L129.68 14.8879L129.702 14.9103C129.657 15.2924 129.59 16.3485 129.5 18.0788L129.432 19.4046L129.342 20.708C129.275 21.9664 129.208 22.9102 129.14 23.5169C129.095 23.8765 129.028 24.5281 128.96 25.4495C128.938 25.5843 128.938 25.8315 128.915 26.191L128.871 27C128.871 27.0225 128.848 27.0225 128.826 27.0225H126.219C126.196 27.0225 126.174 27.0225 126.174 27C126.219 26.6629 126.241 26.2135 126.264 25.6068C126.286 25 126.286 24.5506 126.309 24.281C126.331 24.1686 126.376 23.6293 126.444 22.6405C126.511 21.8765 126.556 21.0675 126.623 20.1911L126.152 20.9327L125.545 21.8765C124.893 22.8428 124.399 23.5843 124.062 24.1461L123.163 25.4944C122.983 25.7641 122.758 26.1011 122.511 26.5056C122.421 26.618 122.331 26.7528 122.264 26.8876L122.197 27C122.174 27.0225 122.174 27.0225 122.174 27.0225L122.152 27.0449H119.41C119.388 27.0449 119.365 27.0225 119.365 27C119.41 26.3483 119.433 25.7416 119.41 25.2248C119.388 23.7866 119.388 22.9102 119.41 22.5731C119.433 21.0226 119.433 20.1911 119.433 20.0788C119.41 19.1125 119.41 18.3934 119.433 17.9215C119.477 16.7755 119.5 15.944 119.5 15.4047V15.3598C119.725 15.2474 120.129 15.1575 120.713 15.0452C121.343 14.9328 121.927 14.8654 122.444 14.8654H122.466V14.9103C122.489 15.4721 122.421 16.4159 122.264 17.7867C122.174 18.4833 122.129 19.2473 122.107 20.0788V21.0001C122.129 21.5619 122.129 22.1462 122.129 22.7529L124.938 18.4608C125.994 16.9103 126.646 15.944 126.938 15.5395L127.028 15.3822H127.05V15.3598C127.792 15.0227 128.668 14.8654 129.657 14.8654ZM141.03 26.9775C141.052 27 141.03 27.0449 141.007 27.0449H137.659C137.637 27.0449 137.637 27.0449 137.637 27.0225C137.434 26.618 137.075 26.1011 136.603 25.4495C135.389 23.7866 134.513 22.6181 133.974 21.9664C133.637 22.3035 133.412 22.5282 133.3 22.663C133.322 23.6742 133.344 24.5731 133.322 25.4045C133.322 25.854 133.255 26.573 133.255 27C133.255 27.0225 133.232 27.0449 133.21 27.0449H131.861H130.558C130.536 27.0449 130.513 27.0225 130.513 27C130.648 25.7191 130.693 24.618 130.67 23.7192C130.648 22.9776 130.625 22.5057 130.625 22.2585C130.625 22.1462 130.648 21.6293 130.67 20.7305C130.693 20.4383 130.693 19.9215 130.67 19.2249C130.648 18.5058 130.648 17.9889 130.67 17.6968C130.693 17.6968 130.693 17.4496 130.67 16.9553V16.1912V15.8317V15.6294C130.67 15.5845 130.625 15.4497 130.67 15.4047C130.693 15.3822 130.76 15.3148 130.873 15.2474C131.367 15.0002 132.153 14.8654 133.21 14.8654C133.232 14.8654 133.232 14.8654 133.232 14.8654V14.8879C133.255 14.8879 133.255 14.8879 133.255 14.8879V14.9103V15.8991C133.255 16.1013 133.3 16.8654 133.3 17.2024C133.322 17.6294 133.3 18.3035 133.277 19.2473L133.816 18.7305C134.019 18.5283 134.333 18.2361 134.715 17.8991L135.592 17.1126L137.21 15.6519L137.906 15.0452C138.019 14.9328 138.108 14.8654 138.153 14.8654C138.266 14.8654 138.468 14.8879 138.76 14.9103C139.592 14.9778 140.311 15.1351 140.872 15.3598C140.895 15.3822 140.895 15.4047 140.872 15.4272C139.929 16.2811 139.322 16.8429 139.075 17.0901L137.322 18.7979L136.625 19.4496L135.861 20.1462L136.266 20.6181C136.49 20.8653 136.67 21.0675 136.783 21.2248L137.344 22.0113L137.884 22.7754L138.446 23.4945L139.097 24.3259C139.254 24.5281 139.434 24.7978 139.681 25.1798C140.198 25.8989 140.603 26.4607 141.03 26.9775ZM93.6456 33.8654C93.6681 33.8654 93.6906 33.8879 93.6906 33.9103C93.6456 34.2924 93.5782 35.3485 93.4883 37.0788L93.3985 38.4046L93.331 39.708C93.2636 40.9664 93.1962 41.9102 93.1288 42.5169C93.0839 42.8765 93.0164 43.5281 92.949 44.4495L92.8591 46C92.8591 46.0225 92.8367 46.0225 92.8142 46.0225H90.2075C90.185 46.0225 90.1626 46.0225 90.1626 46C90.2075 45.6629 90.23 45.2135 90.2524 44.6068C90.2749 44 90.2749 43.5506 90.2974 43.281C90.3199 42.9888 90.3648 42.5394 90.3873 41.9327C89.4659 42.0225 88.8367 42.0675 88.4772 42.09L86.1851 42.2248C86.1626 43.4607 86.1402 44.1798 86.1626 44.3821C86.1851 44.5394 86.1851 44.809 86.1626 45.2135V46C86.1626 46.0225 86.1626 46.0449 86.1402 46.0449H83.3986C83.3762 46.0449 83.3537 46.0225 83.3537 46C83.3986 45.3483 83.4211 44.7416 83.3986 44.2248C83.3762 42.7866 83.3762 41.9102 83.3986 41.5731C83.4211 40.0451 83.4211 39.2136 83.4211 39.0788C83.3986 38.1125 83.3986 37.3934 83.4211 36.9215C83.4661 35.7755 83.4885 34.944 83.4885 34.4047V34.3598C83.7132 34.2474 84.1177 34.1575 84.702 34.0452C85.3312 33.9328 85.9155 33.8654 86.4323 33.8654C86.4323 33.8654 86.4323 33.8654 86.4548 33.8654V33.8879V33.9103C86.4772 34.4721 86.4098 35.4159 86.2525 36.7867C86.1626 37.4833 86.1177 38.2473 86.0952 39.0788V39.9327C87.1064 39.9102 87.8705 39.8653 88.3648 39.8203C89.2862 39.708 90.0277 39.663 90.567 39.6406L90.6794 38.4271C90.8816 36.2024 90.994 34.8766 91.0165 34.4047C91.0165 34.3822 91.0165 34.3822 91.0389 34.3598C91.7805 34.0227 92.6569 33.8654 93.6456 33.8654ZM107.715 45.9775C107.76 46.0899 107.445 46.0449 107.265 46.0449H105.805H104.344C104.322 46.0449 104.322 46.0449 104.322 46.0225L103.962 44.7865L103.625 43.5506C103.535 43.3034 103.423 42.9664 103.266 42.5843C102.164 42.6518 100.749 42.6967 99.0409 42.7641C98.7937 43.4158 98.5465 44 98.3443 44.5618C98.2544 44.854 97.8724 45.6629 97.76 46.0225C97.7376 46.0449 97.7376 46.0449 97.7151 46.0449H94.5466C94.5017 46.0449 94.5017 46.0225 94.5241 45.9775C94.614 45.7753 94.9061 45.1236 95.0634 44.854C95.2657 44.5169 95.4679 44.0899 95.7151 43.618L96.4792 41.9776C96.8162 41.236 97.0859 40.6967 97.2657 40.3597C97.6477 39.6181 98.3443 38.2698 98.7038 37.4833C98.8611 37.1238 99.2656 36.2923 99.4454 35.9553C99.5802 35.6631 99.715 35.371 99.8499 35.1238C99.9173 34.944 100.007 34.7867 100.075 34.6294C100.164 34.4721 100.232 34.3822 100.254 34.3598C100.299 34.3148 100.434 34.2474 100.681 34.18C100.884 34.1126 101.108 34.0676 101.355 34.0002C101.872 33.9103 102.457 33.8654 103.063 33.8654C103.086 33.8654 103.086 33.8654 103.108 33.8879C103.221 34.2699 103.603 35.326 104.277 37.0114C104.524 37.6406 104.816 38.5395 105.198 39.6855C105.58 40.8316 105.872 41.6181 106.03 42.09L106.704 43.9326C106.973 44.7641 107.31 45.4382 107.715 45.9775ZM101.243 40.5394L102.502 40.4495C102.277 39.7979 102.142 39.3709 102.075 39.2136L101.355 37.1013L100.816 38.3372C100.614 38.7867 100.457 39.1687 100.344 39.5057C100.232 39.7529 100.03 40.3597 99.9622 40.6068L101.243 40.5394ZM117.805 37.5732C117.805 37.326 117.805 36.9889 117.783 36.562C117.58 36.5845 117.108 36.6069 116.344 36.6294H115.85L115.333 36.6519C114.906 36.6743 114.592 36.6743 114.367 36.6968C114.3 38.3822 114.187 39.8878 113.985 41.236C113.873 41.9327 113.738 42.5394 113.58 43.0562C113.918 43.0562 114.165 43.0562 114.367 43.0787L115.715 43.1461L116.052 43.1237C116.187 43.1012 116.3 43.1012 116.389 43.1012C116.659 43.1012 117.086 43.1012 117.693 43.1237H117.85C117.873 42.3821 117.873 41.7304 117.85 41.2136C117.85 41.1237 117.85 41.0113 117.828 40.8765L117.783 40.4945V40.1574V38.8541C117.805 38.3148 117.805 37.8878 117.805 37.5732ZM122.614 44.2697C122.704 44.7865 122.749 45.3034 122.749 45.7978C122.771 46.2697 122.794 46.6741 122.794 47.0112V47.0337L122.771 47.0562C122.659 47.1236 122.412 47.1685 122.075 47.2135C121.693 47.2809 121.311 47.2809 120.974 47.2584C120.951 47.2584 120.929 47.2359 120.929 47.2135C120.906 46.8314 120.861 46.5393 120.794 46.3371C120.726 46.1798 120.659 46.0899 120.569 46.0674C120.479 46.0674 120.367 46.0674 120.232 46.0449H120.12H119.985H118.389C117.535 46.0449 116.929 46.0225 116.547 46L115.198 45.9326L114.861 45.9775H114.524H113.221C112.704 45.9551 112.277 45.9551 111.94 45.9551C111.693 45.9551 111.356 45.9551 110.929 45.9775C110.816 46 110.727 46.0899 110.659 46.2697C110.592 46.4719 110.547 46.764 110.524 47.146C110.524 47.1685 110.502 47.191 110.479 47.191C110.142 47.2135 109.76 47.2135 109.378 47.146L109.266 47.1236H109.243L109.199 47.1011C109.019 46.9438 108.839 46.5618 108.637 46L108.569 45.8202C108.457 45.5955 108.367 45.2584 108.3 44.809C108.187 44.2248 108.142 43.6405 108.165 43.0787C108.165 43.0562 108.187 43.0562 108.21 43.0562C108.412 43.0338 108.996 43.0113 109.918 43.0113H110.187C110.412 42.854 110.614 42.6293 110.794 42.3821C111.131 41.9102 111.333 41.2136 111.401 40.2922C111.401 40.0451 111.423 39.708 111.446 39.281C111.468 38.8541 111.468 38.517 111.491 38.2923C111.513 37.7979 111.558 37.1462 111.625 36.3373C111.715 35.2362 111.76 34.6294 111.738 34.5171L111.76 34.4721C112.255 34.2699 112.839 34.1575 113.491 34.1351L114.457 34.0901L116.974 33.9778C118.142 33.9103 119.041 33.8429 119.693 33.8205C120.03 33.798 120.344 33.7755 120.681 33.798C120.704 33.798 120.704 33.8205 120.704 33.8429C120.726 34.0452 120.749 34.6294 120.749 35.5508C120.749 35.7081 120.749 35.9553 120.726 36.3148C120.704 36.6968 120.704 37.3035 120.704 38.1575C120.726 39.0114 120.704 39.6181 120.681 40.0001C120.614 41.1686 120.569 42.2023 120.569 43.0787V43.1012H120.637C121.356 43.0787 121.872 43.0562 122.21 43.0562H122.232L122.254 43.0787C122.412 43.281 122.524 43.6854 122.614 44.2697ZM126.459 36.5395C126.459 36.5395 126.459 36.5395 126.436 36.5395C126.346 36.562 126.369 36.6519 126.369 36.8092V37.3035C126.391 37.8204 126.391 38.3597 126.369 38.9215H127.357C127.784 38.899 128.099 38.899 128.256 38.899C128.796 38.8765 129.223 38.8765 129.515 38.8765C129.874 38.899 130.099 38.899 130.166 38.9215C130.189 38.944 130.189 38.944 130.189 38.9664C130.121 39.0338 130.121 39.3709 130.144 39.9776C130.166 40.5619 130.189 40.899 130.189 40.9664C130.189 40.9889 130.189 40.9889 130.166 41.0113C130.009 41.0338 129.515 41.0338 128.683 41.0338C128.414 41.0338 127.717 41.0563 127.537 41.0563C127.223 41.0563 126.728 41.0787 126.391 41.0787C126.391 41.0787 126.301 41.0787 126.279 41.0787C126.256 41.8877 126.279 42.6293 126.301 43.281H127.447C129.088 43.2585 129.942 43.236 130.009 43.236C131.155 43.2135 131.964 43.236 132.481 43.281C132.503 43.281 132.503 43.3034 132.503 43.3259C132.616 44.0899 132.593 44.9888 132.458 46C132.458 46.0225 132.436 46.0449 132.413 46.0449H130.076H123.47C123.447 46.0449 123.425 46.0225 123.425 46C123.47 45.5506 123.515 44.809 123.56 43.7753C123.56 43.663 123.582 43.1237 123.582 42.9214C123.605 42.8091 123.605 42.5843 123.582 42.2697C123.582 41.9551 123.582 41.7529 123.605 41.6405C123.605 41.4158 123.627 41.1462 123.672 40.9214C123.695 40.899 123.695 40.6967 123.672 40.2922C123.65 39.8878 123.65 39.663 123.65 39.6406C123.65 39.2586 123.672 38.7417 123.717 38.0451C123.762 37.3485 123.784 36.8541 123.784 36.5845C123.807 35.9777 123.784 35.2362 123.762 34.4047C123.74 34.3822 123.762 34.3598 123.784 34.3598L124.841 34.2025C126.503 33.9778 129.11 33.8654 132.661 33.8654C132.683 33.8654 132.683 33.8654 132.706 33.8879C132.818 34.18 132.84 34.6294 132.796 35.2137C132.751 35.753 132.661 36.2024 132.548 36.5395C132.548 36.562 132.548 36.562 132.526 36.562C131.56 36.562 130.706 36.5395 129.942 36.4946C128.841 36.4496 128.009 36.4272 127.47 36.4272C127.065 36.4496 126.728 36.4721 126.459 36.5395ZM151.112 44.8989C151.314 45.191 151.539 45.4607 151.741 45.7079C151.764 45.7303 151.764 45.7303 151.764 45.7528L151.719 45.7753H148.371C148.348 45.7753 148.348 45.7753 148.348 45.7528C148.146 45.3483 147.786 44.8315 147.314 44.1798C146.101 42.5394 145.225 41.3709 144.685 40.6967L144.011 41.3933C144.034 42.4046 144.056 43.3259 144.034 44.1349V44.6517L143.989 45.236C143.966 45.4157 143.966 45.573 143.966 45.7303C143.966 45.7528 143.944 45.7753 143.921 45.7753H141.27C141.247 45.7753 141.225 45.7528 141.225 45.7303C141.359 44.4495 141.404 43.3708 141.382 42.4495C141.359 42.1349 141.359 41.8652 141.359 41.6405L140.708 40.9664C140.168 41.6181 139.292 42.7866 138.079 44.4495C137.607 45.1011 137.247 45.618 137.045 46.0225C137.045 46.0449 137.045 46.0449 137.022 46.0449H133.674L133.629 46.0225C133.629 46 133.629 46 133.652 45.9775L134.281 45.1686C134.483 44.8764 134.73 44.5618 134.978 44.1798C135.225 43.7978 135.427 43.5281 135.584 43.3259L136.236 42.4945L136.798 41.7754L137.337 41.0113C137.562 40.6743 137.742 40.4271 137.899 40.2248C138.011 40.0675 138.191 39.8653 138.416 39.6181C138.618 39.3484 138.753 39.1911 138.82 39.1462C138.663 39.0114 138.393 38.7867 138.056 38.4496L137.36 37.7979L135.607 36.0901C135.36 35.8429 134.753 35.2811 133.809 34.4272C133.787 34.4047 133.787 34.3822 133.809 34.3598C134.371 34.1351 135.09 33.9778 135.921 33.9103C136.213 33.8879 136.416 33.8654 136.528 33.8654C136.573 33.8654 136.663 33.9328 136.775 34.0452L137.472 34.6519L139.09 36.1126L139.944 36.8991L140.865 37.7305L141.382 38.2473V37.9552C141.359 37.2361 141.359 36.7193 141.382 36.4272C141.404 36.4272 141.404 36.18 141.404 35.6856C141.382 35.1912 141.382 34.944 141.382 34.9216V34.3598V34.2924L141.359 34.2025C141.359 34.18 141.359 34.1575 141.382 34.1351C141.404 34.1126 141.472 34.0452 141.584 33.9778C142.079 33.7306 142.865 33.5957 143.921 33.5957H143.944V33.6182H143.966V34.6294C143.966 34.7418 143.966 34.944 143.989 35.2362C144.011 35.5508 144.011 35.7755 144.011 35.9328C144.034 36.3597 144.011 37.0339 143.989 37.9777L144.528 37.4608C144.73 37.2586 145.045 36.9665 145.449 36.6294L146.303 35.8429L147.921 34.3822C148.236 34.1351 148.46 33.9328 148.618 33.7755C148.73 33.6632 148.82 33.5957 148.865 33.5957C148.977 33.5957 149.18 33.6182 149.472 33.6407C150.303 33.7081 151.022 33.8654 151.584 34.0901C151.606 34.1126 151.606 34.1351 151.584 34.1575C150.64 35.0114 150.033 35.5732 149.786 35.8204L148.033 37.5283L147.337 38.1799L146.573 38.8765L146.977 39.3484C147.202 39.5956 147.382 39.7979 147.494 39.9552C147.651 40.1574 147.831 40.4046 148.056 40.7417L148.595 41.5057L149.157 42.2248C149.449 42.6068 149.651 42.8765 149.809 43.0562C149.966 43.2585 150.168 43.5281 150.415 43.9102C150.663 44.2922 150.91 44.6068 151.112 44.8989ZM161.848 37.5732C161.848 37.326 161.848 36.9889 161.826 36.562C161.624 36.5845 161.152 36.6069 160.388 36.6294H159.893L159.376 36.6519C158.95 36.6743 158.635 36.6743 158.41 36.6968C158.343 38.3822 158.23 39.8878 158.028 41.236C157.916 41.9327 157.781 42.5394 157.624 43.0562C157.961 43.0562 158.208 43.0562 158.41 43.0787L159.758 43.1461L160.096 43.1237C160.23 43.1012 160.343 43.1012 160.433 43.1012C160.702 43.1012 161.129 43.1012 161.736 43.1237H161.893C161.916 42.3821 161.916 41.7304 161.893 41.2136C161.893 41.1237 161.893 41.0113 161.871 40.8765L161.826 40.4945V40.1574V38.8541C161.848 38.3148 161.848 37.8878 161.848 37.5732ZM166.657 44.2697C166.747 44.7865 166.792 45.3034 166.792 45.7978C166.815 46.2697 166.837 46.6741 166.837 47.0112V47.0337L166.815 47.0562C166.702 47.1236 166.455 47.1685 166.118 47.2135C165.736 47.2809 165.354 47.2809 165.017 47.2584C164.994 47.2584 164.972 47.2359 164.972 47.2135C164.949 46.8314 164.904 46.5393 164.837 46.3371C164.77 46.1798 164.702 46.0899 164.612 46.0674C164.522 46.0674 164.41 46.0674 164.275 46.0449H164.163H164.028H162.433C161.579 46.0449 160.972 46.0225 160.59 46L159.242 45.9326L158.905 45.9775H158.567H157.264C156.747 45.9551 156.32 45.9551 155.983 45.9551C155.736 45.9551 155.399 45.9551 154.972 45.9775C154.86 46 154.77 46.0899 154.702 46.2697C154.635 46.4719 154.59 46.764 154.568 47.146C154.568 47.1685 154.545 47.191 154.523 47.191C154.186 47.2135 153.804 47.2135 153.422 47.146L153.309 47.1236H153.287L153.242 47.1011C153.062 46.9438 152.882 46.5618 152.68 46L152.613 45.8202C152.5 45.5955 152.41 45.2584 152.343 44.809C152.231 44.2248 152.186 43.6405 152.208 43.0787C152.208 43.0562 152.231 43.0562 152.253 43.0562C152.455 43.0338 153.04 43.0113 153.961 43.0113H154.23C154.455 42.854 154.657 42.6293 154.837 42.3821C155.174 41.9102 155.377 41.2136 155.444 40.2922C155.444 40.0451 155.466 39.708 155.489 39.281C155.511 38.8541 155.511 38.517 155.534 38.2923C155.556 37.7979 155.601 37.1462 155.669 36.3373C155.759 35.2362 155.803 34.6294 155.781 34.5171L155.803 34.4721C156.298 34.2699 156.882 34.1575 157.534 34.1351L158.5 34.0901L161.017 33.9778C162.185 33.9103 163.084 33.8429 163.736 33.8205C164.073 33.798 164.388 33.7755 164.725 33.798C164.747 33.798 164.747 33.8205 164.747 33.8429C164.77 34.0452 164.792 34.6294 164.792 35.5508C164.792 35.7081 164.792 35.9553 164.77 36.3148C164.747 36.6968 164.747 37.3035 164.747 38.1575C164.77 39.0114 164.747 39.6181 164.725 40.0001C164.657 41.1686 164.612 42.2023 164.612 43.0787V43.1012H164.68C165.399 43.0787 165.916 43.0562 166.253 43.0562H166.275L166.298 43.0787C166.455 43.281 166.567 43.6854 166.657 44.2697ZM180.681 33.7306L180.704 33.7755C180.681 34.1575 180.659 35.2137 180.659 36.944V38.2473C180.636 38.8091 180.636 39.2586 180.636 39.5732C180.636 40.8316 180.614 41.7754 180.591 42.3821C180.569 42.7416 180.524 43.3933 180.502 44.3371V45.0562V45.8876C180.502 45.9101 180.479 45.9101 180.457 45.9101C180.299 45.9101 180.03 45.9326 179.625 45.9551L178.681 46L178.232 46.0225L177.85 46.0449C177.827 46.0449 177.805 46.0449 177.805 46.0225C177.827 45.6854 177.85 45.2135 177.827 44.6068C177.805 44 177.805 43.5731 177.805 43.3034C177.805 43.1686 177.827 42.3371 177.872 40.8316C177.895 40.2698 177.895 39.7529 177.895 39.2361C177.917 38.7642 177.917 38.4945 177.917 38.4271C178.007 36.2024 178.052 34.8541 178.052 34.4047L178.075 34.3598C178.816 33.9778 179.67 33.7755 180.659 33.7306H180.681ZM173.603 43.0113C173.828 42.8091 173.985 42.4945 174.052 42.0675C174.12 41.6855 174.12 41.281 174.007 40.899C173.85 40.3372 173.625 39.9327 173.311 39.708C173.019 39.4833 172.637 39.3484 172.142 39.326C171.873 39.3035 171.423 39.326 170.794 39.3709L169.94 39.4608V39.7529C169.985 41.281 169.985 42.2473 169.918 42.6518L169.895 42.854V43.0562V43.281C170.771 43.3708 171.311 43.4158 171.491 43.4158C171.738 43.4383 171.985 43.4383 172.232 43.4383C172.479 43.4607 172.726 43.4158 172.974 43.3484C173.221 43.281 173.446 43.1686 173.603 43.0113ZM174.479 37.6406C175.176 37.9103 175.693 38.3148 176.03 38.8541C176.389 39.4159 176.614 40.2024 176.704 41.2136C176.771 42.1349 176.704 42.9214 176.479 43.5731C176.21 44.3596 175.805 44.8989 175.243 45.191C174.974 45.3483 174.614 45.4607 174.142 45.5506C173.738 45.6405 173.333 45.7079 172.906 45.7753C172.187 45.8876 171.356 45.9326 170.412 45.9101C169.58 45.8876 168.906 45.8202 168.389 45.7079C168.277 45.6854 168.12 45.618 167.918 45.5506L167.491 45.4157L167.468 45.3708L167.536 44.5394H167.513C167.603 42.2473 167.603 40.4945 167.536 39.281L167.468 37.6181C167.468 37.0564 167.468 36.4047 167.491 35.6631C167.513 34.9216 167.513 34.3598 167.513 34.0227V34.0002C167.536 33.9778 167.536 33.9778 167.536 33.9778C167.603 33.9328 167.76 33.8879 167.985 33.8654L168.704 33.798C169.221 33.753 169.58 33.7306 169.828 33.7306C169.85 33.7306 169.873 33.7306 169.873 33.753C169.873 33.8654 169.873 34.0901 169.895 34.4497C169.918 34.6968 169.918 34.9216 169.918 35.0789V35.5957C169.918 35.8204 169.918 36.18 169.94 36.6519C169.962 37.1238 169.962 37.371 169.962 37.3934C171.288 37.326 171.985 37.3035 172.052 37.3035C173.086 37.326 173.895 37.4384 174.479 37.6406Z" fill="#FECC06"/>
</svg>
