<svg width="78" height="78" viewBox="0 0 78 78" fill="none" xmlns="http://www.w3.org/2000/svg">
<g filter="url(#filter0_d_135_3137)">
<rect x="3" y="2" width="72" height="72" rx="36" fill="#E0FFF7"/>
<path d="M29 37C29 33.2288 29 31.3431 30.1716 30.1716C31.3431 29 33.2288 29 37 29H41C44.7712 29 46.6569 29 47.8284 30.1716C49 31.3431 49 33.2288 49 37V39C49 42.7712 49 44.6569 47.8284 45.8284C46.6569 47 44.7712 47 41 47H37C33.2288 47 31.3431 47 30.1716 45.8284C29 44.6569 29 42.7712 29 39V37Z" stroke="#1C5445" stroke-width="1.5"/>
<path d="M29 38H49" stroke="#1C5445" stroke-width="1.5"/>
<path d="M40.5 42.5H45" stroke="#1C5445" stroke-width="1.5" stroke-linecap="round"/>
<path d="M40.5 33.5H45" stroke="#1C5445" stroke-width="1.5" stroke-linecap="round"/>
<path d="M33 43.5L33 41.5" stroke="#1C5445" stroke-width="1.5" stroke-linecap="round"/>
<path d="M33 34.5L33 32.5" stroke="#1C5445" stroke-width="1.5" stroke-linecap="round"/>
<path d="M36 43.5L36 41.5" stroke="#1C5445" stroke-width="1.5" stroke-linecap="round"/>
<path d="M36 34.5L36 32.5" stroke="#1C5445" stroke-width="1.5" stroke-linecap="round"/>
</g>
<defs>
<filter id="filter0_d_135_3137" x="0" y="0" width="78" height="78" filterUnits="userSpaceOnUse" color-interpolation-filters="sRGB">
<feFlood flood-opacity="0" result="BackgroundImageFix"/>
<feColorMatrix in="SourceAlpha" type="matrix" values="0 0 0 0 0 0 0 0 0 0 0 0 0 0 0 0 0 0 127 0" result="hardAlpha"/>
<feOffset dy="1"/>
<feGaussianBlur stdDeviation="1.5"/>
<feComposite in2="hardAlpha" operator="out"/>
<feColorMatrix type="matrix" values="0 0 0 0 0.184314 0 0 0 0 0.168627 0 0 0 0 0.262745 0 0 0 0.1 0"/>
<feBlend mode="normal" in2="BackgroundImageFix" result="effect1_dropShadow_135_3137"/>
<feBlend mode="normal" in="SourceGraphic" in2="effect1_dropShadow_135_3137" result="shape"/>
</filter>
</defs>
</svg>
