<svg width="78" height="78" viewBox="0 0 78 78" fill="none" xmlns="http://www.w3.org/2000/svg">
<g filter="url(#filter0_d_135_3114)">
<rect x="3" y="2" width="72" height="72" rx="36" fill="#E0FFF7"/>
<path d="M30 36C30 32.2288 30 30.3431 31.1716 29.1716C32.3431 28 34.2288 28 38 28H40C43.7712 28 45.6569 28 46.8284 29.1716C48 30.3431 48 32.2288 48 36V40C48 43.7712 48 45.6569 46.8284 46.8284C45.6569 48 43.7712 48 40 48H38C34.2288 48 32.3431 48 31.1716 46.8284C30 45.6569 30 43.7712 30 40V36Z" stroke="#1C5445" stroke-width="1.5"/>
<path d="M39 32L39 34M39 34L39 36M39 34H37M39 34L41 34" stroke="#1C5445" stroke-width="1.5" stroke-linecap="round"/>
<path d="M35 40H43" stroke="#1C5445" stroke-width="1.5" stroke-linecap="round"/>
<path d="M36 44H42" stroke="#1C5445" stroke-width="1.5" stroke-linecap="round"/>
</g>
<defs>
<filter id="filter0_d_135_3114" x="0" y="0" width="78" height="78" filterUnits="userSpaceOnUse" color-interpolation-filters="sRGB">
<feFlood flood-opacity="0" result="BackgroundImageFix"/>
<feColorMatrix in="SourceAlpha" type="matrix" values="0 0 0 0 0 0 0 0 0 0 0 0 0 0 0 0 0 0 127 0" result="hardAlpha"/>
<feOffset dy="1"/>
<feGaussianBlur stdDeviation="1.5"/>
<feComposite in2="hardAlpha" operator="out"/>
<feColorMatrix type="matrix" values="0 0 0 0 0.184314 0 0 0 0 0.168627 0 0 0 0 0.262745 0 0 0 0.1 0"/>
<feBlend mode="normal" in2="BackgroundImageFix" result="effect1_dropShadow_135_3114"/>
<feBlend mode="normal" in="SourceGraphic" in2="effect1_dropShadow_135_3114" result="shape"/>
</filter>
</defs>
</svg>
