<svg width="78" height="78" viewBox="0 0 78 78" fill="none" xmlns="http://www.w3.org/2000/svg">
<g filter="url(#filter0_d_239_805)">
<rect x="3" y="2" width="72" height="72" rx="36" fill="#E0FFF7"/>
<path d="M36.6497 34.8022L36.2079 35.4083L36.6497 34.8022ZM38.5 29.1062L37.9925 29.6583C38.2794 29.9221 38.7206 29.9221 39.0075 29.6583L38.5 29.1062ZM40.3503 34.8022L40.7921 35.4083L40.3503 34.8022ZM38.5 35.676L38.5 36.426H38.5L38.5 35.676ZM37.0915 34.1961C36.4013 33.693 35.6651 33.0811 35.1088 32.4363C34.5345 31.7705 34.25 31.1823 34.25 30.7148H32.75C32.75 31.7323 33.3285 32.6689 33.9731 33.4161C34.6357 34.1842 35.4743 34.8735 36.2079 35.4083L37.0915 34.1961ZM34.25 30.7148C34.25 29.6561 34.77 29.0523 35.3955 28.8418C36.0475 28.6224 37.0199 28.7643 37.9925 29.6583L39.0075 28.554C37.7302 27.3799 36.2025 26.9876 34.9171 27.4202C33.605 27.8617 32.75 29.0962 32.75 30.7148H34.25ZM40.7921 35.4083C41.5257 34.8735 42.3643 34.1842 43.027 33.4161C43.6716 32.6689 44.25 31.7323 44.25 30.7148H42.75C42.75 31.1823 42.4655 31.7705 41.8912 32.4363C41.3349 33.0811 40.5987 33.693 39.9085 34.1961L40.7921 35.4083ZM44.25 30.7148C44.25 29.0962 43.395 27.8617 42.0829 27.4202C40.7975 26.9876 39.2698 27.3799 37.9925 28.554L39.0075 29.6583C39.9801 28.7643 40.9525 28.6224 41.6045 28.8418C42.23 29.0523 42.75 29.6561 42.75 30.7148H44.25ZM36.2079 35.4083C36.963 35.9587 37.5618 36.426 38.5 36.426L38.5 34.926C38.135 34.926 37.9347 34.8107 37.0915 34.1961L36.2079 35.4083ZM39.9085 34.1961C39.0653 34.8107 38.865 34.926 38.5 34.926L38.5 36.426C39.4382 36.426 40.037 35.9587 40.7921 35.4083L39.9085 34.1961Z" fill="#1C5445"/>
<path d="M31.5 46.3884H33.7599C34.7708 46.3884 35.7925 46.4937 36.7763 46.6964C38.5166 47.0549 40.3488 47.0983 42.1069 46.8138C42.9738 46.6734 43.826 46.4589 44.5975 46.0865C45.2939 45.7504 46.1469 45.2766 46.7199 44.7459C47.2921 44.216 47.888 43.3487 48.3109 42.6707C48.6736 42.0894 48.4982 41.3762 47.9245 40.943C47.2873 40.4619 46.3417 40.462 45.7046 40.9433L43.8974 42.3084C43.197 42.8375 42.432 43.3245 41.5206 43.4699C41.411 43.4874 41.2962 43.5033 41.1764 43.5172M41.1764 43.5172C41.1403 43.5214 41.1038 43.5254 41.0668 43.5292M41.1764 43.5172C41.3222 43.486 41.4669 43.396 41.6028 43.2775C42.246 42.7161 42.2866 41.77 41.7285 41.1431C41.5991 40.9977 41.4475 40.8764 41.2791 40.7759C38.4817 39.1074 34.1294 40.3782 31.5 42.2429M41.1764 43.5172C41.1399 43.525 41.1033 43.5292 41.0668 43.5292M41.0668 43.5292C40.5434 43.5829 39.9312 43.5968 39.2518 43.5326" stroke="#1C5445" stroke-width="1.5" stroke-linecap="round"/>
<rect x="28.5" y="40" width="3" height="8" rx="1.5" stroke="#1C5445" stroke-width="1.5"/>
</g>
<defs>
<filter id="filter0_d_239_805" x="0" y="0" width="78" height="78" filterUnits="userSpaceOnUse" color-interpolation-filters="sRGB">
<feFlood flood-opacity="0" result="BackgroundImageFix"/>
<feColorMatrix in="SourceAlpha" type="matrix" values="0 0 0 0 0 0 0 0 0 0 0 0 0 0 0 0 0 0 127 0" result="hardAlpha"/>
<feOffset dy="1"/>
<feGaussianBlur stdDeviation="1.5"/>
<feComposite in2="hardAlpha" operator="out"/>
<feColorMatrix type="matrix" values="0 0 0 0 0.184314 0 0 0 0 0.168627 0 0 0 0 0.262745 0 0 0 0.1 0"/>
<feBlend mode="normal" in2="BackgroundImageFix" result="effect1_dropShadow_239_805"/>
<feBlend mode="normal" in="SourceGraphic" in2="effect1_dropShadow_239_805" result="shape"/>
</filter>
</defs>
</svg>
