<svg width="72" height="73" viewBox="0 0 72 73" fill="none" xmlns="http://www.w3.org/2000/svg">
<path fill-rule="evenodd" clip-rule="evenodd" d="M36 72.7275C55.883 72.7275 72 56.6105 72 36.7275C72 16.8454 55.883 0.727539 36 0.727539C16.1178 0.727539 0 16.8454 0 36.7275C0 56.6105 16.1178 72.7275 36 72.7275Z" fill="#22B18B"/>
<path d="M37.7755 46.6C27.2523 46.6 21.2501 39.2426 21 27H26.2712C26.4443 35.9858 30.3304 39.792 33.4085 40.5768V27H38.3719V34.7497C41.4115 34.4162 44.605 30.8847 45.6823 27H50.6457C50.2398 29.0147 49.4305 30.9223 48.2686 32.6035C47.1068 34.2847 45.6172 35.7033 43.8932 36.7706C45.8176 37.7458 47.5174 39.1261 48.8803 40.8204C50.2432 42.5148 51.2384 44.4846 51.8 46.6H46.3364C45.8322 44.7627 44.8076 43.1179 43.3907 41.872C41.9739 40.626 40.2281 39.8342 38.3719 39.5958V46.6H37.7755Z" fill="#E0FFF7"/>
</svg>
